<svg width="98" height="44" viewBox="0 0 98 44" fill="none" xmlns="http://www.w3.org/2000/svg">
<path d="M0.0143945 43.8501L0.000244141 30.4667L11.5191 30.4544L11.5225 33.6641L4.28202 33.6718L4.28398 35.5198L10.4791 35.5132L10.4823 38.5867L4.28723 38.5934L4.28942 40.6358L11.6654 40.628L11.6688 43.8377L0.0143945 43.8501Z" fill="white"/>
<path d="M17.5538 43.8313L12.8159 30.4531L17.3847 30.4481L19.2304 36.6321C19.2821 36.8007 19.3533 37.0471 19.4441 37.371C19.5347 37.6953 19.6351 38.0389 19.7453 38.4017C19.8552 38.7648 19.9493 39.0955 20.0271 39.3935L20.1819 39.3933C20.2591 39.1209 20.3489 38.8095 20.452 38.4593C20.5548 38.1091 20.6546 37.7686 20.7509 37.4378C20.8474 37.1069 20.9212 36.8378 20.9727 36.6302L22.8247 30.4423L27.2 30.4377L22.5097 43.826L17.5538 43.8313Z" fill="white"/>
<path d="M29.0533 43.819L29.0391 30.4357L40.558 30.4234L40.5614 33.633L33.3209 33.6408L33.3228 35.4888L39.5179 35.4822L39.5212 38.5557L33.3261 38.5622L33.3283 40.6048L40.7043 40.5969L40.7077 43.8066L29.0533 43.819Z" fill="white"/>
<path d="M47.243 36.3298L50.2437 36.3267C50.5791 36.3262 50.863 36.1931 51.095 35.9269C51.3271 35.6611 51.4429 35.3074 51.4425 34.8664C51.4421 34.5941 51.3902 34.3543 51.2867 34.1468C51.1831 33.9397 51.041 33.7745 50.8604 33.6512C50.6793 33.5283 50.473 33.4669 50.2407 33.4671L47.24 33.4703L47.243 36.3298ZM42.9724 43.8042L42.9582 30.4209L51.3022 30.4119C52.2959 30.4108 53.1252 30.6112 53.7905 31.0122C54.4554 31.4137 54.9561 31.9383 55.2925 32.5863C55.6287 33.2346 55.7973 33.9347 55.7981 34.6866C55.799 35.5426 55.5996 36.3048 55.2004 36.973C54.8009 37.6414 54.2594 38.177 53.5759 38.5795L56.1949 43.7901L51.3938 43.7951L49.3563 39.3038L47.2462 39.3061L47.2509 43.7996L42.9724 43.8042Z" fill="white"/>
<path d="M58.0922 43.788L58.078 30.4047L69.5969 30.3923L69.6003 33.602L62.3598 33.6098L62.3617 35.4578L68.5568 35.4511L68.5601 38.5247L62.365 38.5313L62.3672 40.5738L69.7432 40.5659L69.7466 43.7756L58.0922 43.788Z" fill="white"/>
<path d="M77.9936 44.0002C77.077 44.0011 76.2222 43.934 75.4282 43.7987C74.6343 43.6633 73.9372 43.4306 73.3367 43.1007C72.7362 42.7706 72.2645 42.3109 71.922 41.721C71.5792 41.1314 71.4076 40.389 71.4066 39.4942C71.4066 39.4684 71.4066 39.4328 71.4065 39.3873C71.4064 39.3419 71.4128 39.2933 71.4258 39.2413L75.4718 39.237C75.4589 39.289 75.4526 39.3376 75.4527 39.383C75.4527 39.4285 75.4528 39.4705 75.4528 39.5094C75.4533 39.8984 75.5436 40.1968 75.7247 40.4039C75.9056 40.6113 76.1607 40.7505 76.4899 40.8213C76.819 40.8924 77.1899 40.9275 77.6031 40.9271C77.758 40.927 77.9226 40.9237 78.0968 40.9169C78.271 40.9103 78.4386 40.8907 78.6002 40.8579C78.7613 40.8255 78.9098 40.7768 79.0452 40.7116C79.1806 40.6467 79.287 40.5591 79.3644 40.4486C79.4417 40.3385 79.4803 40.199 79.4802 40.0303C79.4798 39.7841 79.3698 39.5897 79.1504 39.447C78.9307 39.3048 78.6337 39.1819 78.2594 39.0784C77.8848 38.9751 77.4655 38.8784 77.0008 38.7879C76.5361 38.6979 76.052 38.5914 75.5484 38.4686C75.045 38.346 74.5608 38.1875 74.096 37.9936C73.6312 37.7995 73.2114 37.5504 72.8368 37.2459C72.462 36.9417 72.1648 36.5594 71.9451 36.0992C71.725 35.6393 71.6149 35.085 71.6142 34.4363C71.6134 33.6583 71.7739 32.9967 72.0961 32.4517C72.4179 31.9067 72.8598 31.4654 73.4209 31.1275C73.9819 30.7898 74.6205 30.5426 75.3366 30.3862C76.0528 30.2298 76.8044 30.1512 77.5917 30.1504C78.3919 30.1495 79.1436 30.2299 79.8474 30.3911C80.5509 30.5527 81.174 30.8016 81.7163 31.1381C82.2588 31.4749 82.6851 31.9024 82.9955 32.4206C83.3058 32.9391 83.4676 33.555 83.4814 34.268L83.4816 34.5015L79.4743 34.5057L79.4742 34.4279C79.474 34.1945 79.4156 33.9742 79.2992 33.7668C79.1828 33.5595 78.9987 33.391 78.7469 33.2616C78.4952 33.1323 78.1626 33.0677 77.7498 33.0681C77.3626 33.0685 77.0365 33.1077 76.7722 33.1859C76.5076 33.264 76.3107 33.3712 76.1821 33.5075C76.053 33.6437 75.9888 33.7897 75.9889 33.9454C75.9892 34.1919 76.0989 34.3926 76.3187 34.548C76.5381 34.7034 76.835 34.8329 77.2096 34.9361C77.5839 35.0397 78.0036 35.1365 78.4683 35.2265C78.933 35.317 79.4171 35.417 79.9205 35.5266C80.4241 35.6363 80.9082 35.7817 81.373 35.9627C81.8379 36.1439 82.2574 36.3799 82.6321 36.6713C83.0066 36.9627 83.3038 37.3223 83.5238 37.75C83.7436 38.1777 83.854 38.7028 83.8546 39.3253C83.8558 40.4278 83.6017 41.3228 83.0927 42.0106C82.5834 42.6986 81.887 43.2018 81.0035 43.5204C80.1197 43.8389 79.1165 43.9989 77.9936 44.0002Z" fill="white"/>
<path d="M89.3764 43.7546L89.3659 33.7949L84.9906 33.7996L84.9871 30.3759L97.9966 30.362L98.0002 33.7856L93.6443 33.7903L93.6549 43.75L89.3764 43.7546Z" fill="white"/>
<path fill-rule="evenodd" clip-rule="evenodd" d="M4.09721 27.675L5.03105 27.3963C5.10888 27.3725 5.16076 27.3486 5.23851 27.3167L5.86104 27.078C6.25009 26.903 6.8466 26.6485 7.23566 26.4576L8.16926 25.9884C8.40265 25.8611 8.68794 25.7339 8.92134 25.6067C9.23256 25.4397 9.54379 25.2886 9.85493 25.1216C9.93276 25.0898 9.98465 25.058 10.0365 25.0262L10.9701 24.5332C11.0219 24.5014 11.0998 24.4775 11.1516 24.4377L12.0852 23.9527C12.1371 23.9209 12.2149 23.8811 12.2668 23.8493C12.3186 23.8255 12.3965 23.7937 12.4483 23.754L13.3819 23.2768C13.4598 23.245 13.5116 23.2211 13.5635 23.1814C13.6153 23.1654 13.6413 23.1495 13.6672 23.1337C14.134 22.8871 15.0677 22.4497 15.5346 22.2985C15.7162 22.2426 15.8977 22.1711 16.0793 22.1391C16.1052 22.1391 16.1831 22.139 16.209 22.1231C16.2091 22.1707 16.2092 22.2501 16.1833 22.3056L16.0546 23.2501C16.0286 23.3057 16.0287 23.393 16.0288 23.4485C16.0029 23.5042 15.9771 23.5835 15.9771 23.6391C16.1587 23.5357 16.4956 23.1544 16.6769 22.9638C17.0658 22.5746 17.4027 22.1615 17.7655 21.7644L18.4135 21.105C18.4395 21.0732 18.4653 21.0494 18.4913 21.0177C18.569 20.9541 18.6209 20.9064 18.6987 20.8429L18.9061 20.676C18.932 20.6442 18.9579 20.6204 19.0098 20.5886C19.0357 20.5647 19.0616 20.5409 19.1135 20.5091L19.3209 20.3581C19.4765 20.2627 19.6321 20.1753 19.8137 20.0957C20.5398 19.7616 21.2146 19.8562 21.8637 20.2602C22.0715 20.3948 22.1494 20.482 22.2793 20.5771L22.5649 20.8546L22.6169 20.9021C22.6169 20.926 22.6429 20.9259 22.6429 20.9497C22.6948 21.0132 22.7727 21.0766 22.8247 21.1479C22.7988 21.2035 22.7211 21.3226 22.6952 21.3782C22.6435 21.4972 21.8147 22.9504 21.8147 23.0059C21.8925 22.9503 22.0999 22.7914 22.1777 22.7199L24.0703 21.2339C24.0703 21.218 24.0963 21.21 24.1222 21.1942C24.1481 21.1703 24.1481 21.1703 24.174 21.1464L24.9259 20.5505C24.9518 20.5346 24.9518 20.5267 24.9777 20.5108C25.2111 20.3201 25.6 20.034 25.8333 19.8353L27.9852 18.1348C28.0111 18.111 28.0371 18.103 28.063 18.0871L29.7223 16.7681C29.7482 16.7522 29.7482 16.7442 29.7741 16.7204C29.8778 16.6409 30.0075 16.5614 30.1111 16.4661C30.1371 16.4502 30.1371 16.4502 30.163 16.4264C30.189 16.4105 30.189 16.4026 30.2148 16.3787L30.9149 15.8304C30.9408 15.8145 30.9408 15.8145 30.9668 15.7907L31.1222 15.6635C31.1482 15.6477 31.1482 15.6397 31.1741 15.6159L32.4186 14.6385C32.4445 14.6226 32.4445 14.6146 32.4704 14.5987L32.6001 14.5114C32.626 14.4875 32.6519 14.4636 32.6779 14.4318L32.8075 14.3445C32.8335 14.3206 32.8335 14.3206 32.8593 14.3047L33.8186 13.534C33.8446 13.518 33.8705 13.5101 33.8964 13.4862L35.5038 12.2148C35.5297 12.191 35.5297 12.191 35.5557 12.1751C35.5816 12.1513 35.5816 12.1433 35.6075 12.1275C35.6854 12.167 36.023 12.3651 36.1008 12.3809C36.1009 12.4284 36.0749 12.4365 36.0749 12.4761L35.9455 12.7302C35.7901 13.0795 35.5829 13.413 35.4276 13.7624L35.091 14.4452C35.0651 14.5007 35.0393 14.5563 35.0133 14.6199L34.858 14.9692C34.8062 15.0168 34.7803 15.0803 34.7544 15.1438L35.2471 14.7625C35.2729 14.7227 35.2989 14.7068 35.3508 14.6671C35.4026 14.6274 35.4285 14.6035 35.4804 14.5638C35.5841 14.4605 35.7137 14.3731 35.8174 14.2777C35.8433 14.254 35.8693 14.2459 35.8692 14.2222L36.1803 13.9837C36.31 13.8804 36.4137 13.7852 36.5433 13.6897L37.347 13.0064C37.3729 12.9826 37.3988 12.9826 37.4248 12.9667C37.4248 12.9428 37.4507 12.927 37.4766 12.9111L38.3062 12.2357C38.3062 12.2118 38.3322 12.196 38.3581 12.18C38.384 12.1642 38.384 12.1563 38.4099 12.1324L38.5395 12.037C38.5655 12.0132 38.5655 12.0052 38.5914 11.9815C38.7988 11.8225 39.0581 11.6 39.2396 11.457C39.3951 11.3299 39.5506 11.1789 39.7062 11.0597C39.8099 10.9882 40.0692 10.7816 40.1728 10.6703L40.8987 10.0903C40.9247 10.0506 40.9766 10.0347 41.0024 9.99497L41.4691 9.6056C41.6246 9.48646 42.2728 8.93023 42.3247 8.9223L41.8845 9.8036C41.7291 10.1053 41.5479 10.5023 41.3925 10.8119L41.1595 11.3121C41.1336 11.3598 41.1077 11.3994 41.0818 11.447C40.9783 11.7011 40.8229 11.9473 40.7193 12.2014C40.6935 12.2569 40.6675 12.2808 40.6676 12.3283C40.5899 12.4554 40.3568 12.8842 40.3569 12.9715C40.4088 12.9317 40.4346 12.8762 40.4865 12.8285C40.5124 12.7967 40.5383 12.7808 40.5643 12.7491L41.3418 11.9071C41.3677 11.8832 41.3677 11.8832 41.3937 11.8673C41.3937 11.8515 41.4195 11.8435 41.4195 11.8276C41.4455 11.7959 41.4714 11.78 41.4973 11.7482L43.4931 9.60348C43.5967 9.46056 43.7522 9.33341 43.8819 9.19041L44.0632 8.99184C44.2188 8.83299 44.3743 8.6582 44.5038 8.49142C44.5816 8.41992 44.8926 8.11806 44.9186 8.0625C45.0224 8.10998 45.1261 8.06226 45.4896 8.29988C45.8013 8.51381 46.087 8.75953 46.3726 9.0211L46.6324 9.25096C46.6583 9.26681 46.6843 9.28267 46.6844 9.29852C46.7362 9.33022 46.7623 9.37778 46.8142 9.38563C46.84 9.29043 46.8918 9.20308 46.9436 9.12365L47.1767 8.66319C47.1766 8.6314 47.2026 8.61547 47.2026 8.58376C47.3838 8.25821 47.5392 7.9168 47.6945 7.59133L47.8239 7.32135C47.8498 7.26578 48.2383 6.55118 48.2382 6.49562C48.2642 6.5194 48.2642 6.5511 48.2903 6.58281L48.3942 6.76528C48.4202 6.80491 48.4462 6.83661 48.4722 6.86832L48.6801 7.24903C48.7062 7.28074 48.7321 7.31244 48.7322 7.34422C48.7581 7.37593 48.7841 7.39971 48.7841 7.43142C48.8101 7.47105 48.8361 7.49483 48.862 7.52653L49.122 8.01037C49.278 8.26409 49.434 8.50997 49.564 8.76378C49.746 9.08892 49.9539 9.39028 50.1358 9.71543L50.7337 10.7623C50.7597 10.794 50.7857 10.8098 50.8117 10.8495C50.8377 10.9209 50.8638 10.9764 50.9157 11.0477L51.2536 11.6108C51.2796 11.6425 51.2796 11.6743 51.3056 11.706C51.4096 11.8963 51.5396 12.0866 51.6436 12.2769C51.8256 12.6259 52.0595 12.9749 52.2415 13.3317L53.8531 16.0836C53.8792 16.1233 53.9051 16.1312 53.931 16.1708C53.9571 16.2422 54.009 16.2977 54.0351 16.3691C54.0611 16.4406 54.113 16.4881 54.1391 16.5515C54.243 16.7181 54.321 16.8687 54.425 17.0274L55.1528 18.2645C55.1788 18.2962 55.1789 18.328 55.2048 18.3597L55.3868 18.6532C55.3867 18.5658 55.1782 17.6852 55.1521 17.59C55.0739 17.241 55.0217 16.8839 54.9434 16.5269C54.8652 16.1857 54.787 15.8287 54.7087 15.4717C54.6306 15.1067 54.5783 14.7576 54.5001 14.4086C54.448 14.2261 54.4218 14.0515 54.3957 13.877L53.6394 10.2909C53.6134 10.2434 53.6134 10.2037 53.6133 10.1481C53.6911 10.1163 53.769 10.0686 53.8467 10.0289C53.8726 10.013 53.8986 9.9971 53.9505 9.97324C54.0024 9.94938 54.0282 9.91759 54.0801 9.90958L56.08 11.6771C56.2099 11.796 56.3397 11.9069 56.4956 12.0337L56.7293 12.2477C56.8591 12.3428 56.989 12.4696 57.0929 12.5727L57.3007 12.747C57.4045 12.8342 57.4825 12.9294 57.5864 13.0007C57.6902 13.08 57.7942 13.1909 57.898 13.2781L58.911 14.1658C59.0408 14.2688 59.1707 14.4194 59.3005 14.5145C59.3784 14.57 59.6122 14.7999 59.7421 14.9109C59.8719 15.0139 59.9758 15.1249 60.1057 15.2358C60.1317 15.2675 60.1577 15.2834 60.2096 15.315C60.2875 15.4023 60.3914 15.5212 60.4953 15.5846C60.4953 15.5052 60.1053 14.8787 60.0533 14.7598L59.5854 13.9349C59.1434 13.1498 58.7015 12.3725 58.2855 11.5874C58.2075 11.4685 58.0776 11.294 58.0515 11.1671L63.2446 14.4151C63.2964 14.4468 63.3484 14.4785 63.4003 14.5101L64.5688 15.2549C65.088 15.5558 65.5555 15.8728 66.0488 16.1738L66.8017 16.6412C66.8537 16.6729 66.9056 16.7046 66.9576 16.7362C67.0094 16.7679 67.5028 17.0927 67.5547 17.1086C67.5288 17.053 67.0871 16.5377 67.0611 16.4902C66.8272 16.1809 66.5674 15.8796 66.3076 15.5704L66.0478 15.2612C65.9958 15.1978 65.5802 14.6983 65.5542 14.6348C65.6319 14.5871 65.7097 14.5395 65.7876 14.4917L66.4617 14.0466C66.5135 13.9989 66.5914 13.9513 66.6691 13.9036C66.8506 13.7843 67.0321 13.6493 67.2137 13.53C67.2655 13.5062 67.2914 13.4665 67.3433 13.4585C67.4471 13.5218 67.8628 13.9499 67.9927 14.0688C68.1225 14.1718 68.2264 14.2749 68.3303 14.3779L68.668 14.687C69.1355 15.1071 69.5511 15.5114 70.0186 15.9236L70.3562 16.2406C70.4601 16.3436 70.564 16.4388 70.6938 16.5497L72.3562 18.0954C72.4081 18.1509 72.486 18.1905 72.5379 18.2301C72.6158 18.2697 72.6678 18.3252 72.7456 18.3569C72.7455 18.2061 72.5375 17.8016 72.4335 17.6351C72.4076 17.6033 72.4075 17.5716 72.3815 17.5399L72.0955 16.9529C72.0436 16.8974 72.0174 16.8181 71.9915 16.7547C72.1212 16.7863 72.5107 17.0716 72.6666 17.1745L73.7573 18.0304C73.7832 18.0621 73.8092 18.0621 73.8352 18.0859C73.8611 18.1097 73.8872 18.1334 73.9131 18.1572C74.0949 18.3316 74.3026 18.4901 74.5104 18.6644L74.9519 19.0528C74.978 19.0766 74.978 19.0845 75.0298 19.1082C75.1857 19.243 75.4974 19.5443 75.6792 19.7027C75.7831 19.8058 76.3805 20.321 76.4585 20.432C76.5623 20.5509 76.6922 20.6539 76.8221 20.7649C76.874 20.8125 76.9 20.8521 76.9519 20.8917L77.3934 21.296C77.4195 21.3435 77.4714 21.3832 77.5233 21.4307C77.5493 21.4545 77.5493 21.4704 77.6012 21.5021L79.1338 22.9844C79.1597 23.0081 79.1857 23.024 79.2117 23.0478C79.2636 23.0953 79.2896 23.135 79.3415 23.1825C79.3675 23.2063 79.3935 23.2222 79.4195 23.2539L80.6143 24.4112C80.7182 24.5301 80.8481 24.6331 80.952 24.752C80.978 24.7758 81.0039 24.7917 81.0299 24.8234L82.0428 25.7349C82.0688 25.7587 82.0688 25.7666 82.1207 25.7903C82.2246 25.9013 82.3805 25.9964 82.5102 26.0915C83.3412 26.6461 83.7304 26.6297 84.5863 26.2241C84.6122 26.2083 84.6382 26.2003 84.69 26.1764L85.3384 25.8663C85.4681 25.8026 85.7015 25.7071 85.8571 25.6594C86.0905 25.5798 86.35 25.4922 86.6094 25.4285C87.0245 25.3328 87.4136 25.2768 87.8807 25.3477C88.5555 25.4502 89.1526 25.7352 89.7497 26.0123L90.6064 26.4241C90.9958 26.622 91.4372 26.8199 91.8784 26.9703C92.3197 27.1205 92.5273 27.1679 92.9945 27.2706C93.1503 27.3101 93.306 27.3258 93.4876 27.3415C93.6693 27.3651 93.8509 27.3729 94.0325 27.3805L94.2661 27.4042V27.2058L93.8505 26.8809C93.5649 26.6589 93.2533 26.4609 92.9417 26.2708L92.6561 26.1044C92.6302 26.0806 92.6042 26.0648 92.5782 26.049C92.1628 25.8034 91.7214 25.55 91.306 25.3203L87.8788 23.4035C87.749 23.3243 87.5153 23.1896 87.3855 23.1342C87.0221 22.9918 86.6587 22.8494 86.2695 22.8577C85.9841 22.866 85.7506 22.9376 85.4912 23.0411C85.2837 23.1285 85.1022 23.2557 84.8947 23.3433C84.791 23.391 84.6873 23.4466 84.5576 23.4864C84.4019 23.5342 84.2463 23.5819 84.0647 23.598C83.6755 23.6382 83.3641 23.5592 82.9747 23.4564C82.8709 23.4247 82.7411 23.3773 82.6373 23.3298C82.4815 23.2823 82.3517 23.211 82.2219 23.1398L81.8324 22.9259C81.7546 22.8863 81.6767 22.8468 81.6247 22.8151C81.5469 22.7754 81.4949 22.7358 81.443 22.6962L81.2353 22.5694C81.1834 22.5299 81.1314 22.4982 81.0535 22.4506C81.0016 22.411 80.9496 22.3713 80.8717 22.3318C80.69 22.205 80.5082 22.0862 80.3524 21.9435C80.3264 21.9197 80.3004 21.9039 80.2745 21.8801C79.9889 21.6978 79.7551 21.4918 79.4954 21.2858C79.4694 21.262 79.4435 21.2461 79.4175 21.2224C79.2876 21.1352 78.8721 20.7706 78.7423 20.6676C78.7162 20.6438 78.7162 20.6359 78.6644 20.6042L77.2358 19.3123C77.054 19.1379 76.8463 18.9873 76.6904 18.805L75.2099 17.4019C75.1319 17.2909 75.0021 17.2038 74.9241 17.1007C74.6644 16.847 74.4046 16.6092 74.1449 16.3477L73.3916 15.5946C73.1319 15.3568 72.898 15.0872 72.6384 14.8494L72.3266 14.5482C72.2747 14.5006 72.2227 14.4531 72.1708 14.4055C72.0928 14.3263 71.6512 13.8903 71.5474 13.8111L70.7682 13.0739C70.6643 12.9788 70.4046 12.741 70.2748 12.6538C70.1708 12.5826 69.9371 12.3447 69.7813 12.2417L69.3658 11.9168C68.8984 11.5919 68.431 11.283 67.9118 11.0772C67.159 10.7923 66.5622 10.7533 65.784 10.9604C65.2911 11.0879 64.8501 11.2789 64.3572 11.3905C63.1899 11.6615 62.1776 11.3372 61.1911 10.886C60.9834 10.791 60.7757 10.6801 60.594 10.5692L60.1007 10.2841C59.9708 10.2127 59.8669 10.1256 59.7371 10.0464C59.3996 9.84045 58.9062 9.47592 58.5686 9.23029C58.3089 9.04006 58.0492 8.83405 57.8155 8.62797L55.8676 6.93982C55.7897 6.88433 55.7377 6.85263 55.6858 6.79714C55.5299 6.6624 55.2961 6.42461 55.1403 6.30571C55.0105 6.21861 54.8546 6.04414 54.7248 5.9411L54.4131 5.65583C54.3092 5.56064 54.2053 5.4656 54.1014 5.3704L53.7638 5.08514C53.7119 5.03758 53.6599 4.99002 53.6079 4.94246L53.1405 4.51444C53.0106 4.42725 52.9068 4.32421 52.8028 4.22909C52.7769 4.19739 52.7509 4.18946 52.7249 4.16568C52.6989 4.13398 52.673 4.11812 52.647 4.09435C52.5951 4.04679 52.5431 3.98338 52.4912 3.94374C52.3613 3.85664 52.2833 3.74559 52.1535 3.6664C52.0237 3.57129 51.4523 3.064 51.2705 2.88962L51.0887 2.74703C51.0627 2.72325 51.0368 2.71532 51.0108 2.68362L50.6992 2.4062C50.6731 2.39034 50.6472 2.36657 50.6212 2.34279L50.4394 2.19219C50.3095 2.07329 50.0759 1.91485 49.946 1.78802C49.8421 1.69291 49.7123 1.61373 49.6084 1.51861C49.5824 1.48691 49.5565 1.47898 49.5304 1.44727C49.4785 1.40764 49.4265 1.35216 49.3487 1.31252L48.8552 0.908363C48.7254 0.821175 48.6215 0.741993 48.4917 0.646877C47.7128 0.227108 47.4532 0.0765877 47.3234 0.0529728C47.0638 -0.0102749 46.4411 -0.0254745 46.2855 0.0619602C45.6371 0.435642 44.7557 1.09525 44.4706 1.38125C44.1854 1.66725 44.4187 1.42096 44.3927 1.44482C44.3668 1.4686 44.3409 1.47661 44.315 1.5084L44.0817 1.69111C44.0557 1.71497 44.0298 1.7229 44.0038 1.75469L43.5372 2.1282C43.4076 2.22356 43.252 2.35071 43.1483 2.44599C43.0446 2.54136 42.8631 2.6685 42.7335 2.76386L42.5779 2.89101C42.552 2.91487 42.552 2.9228 42.5002 2.95459C42.4224 3.04194 42.2927 3.11352 42.189 3.2088L41.9557 3.3916C41.8002 3.55045 41.5928 3.68561 41.4372 3.83653C41.3594 3.90804 41.2817 3.96368 41.2039 4.03518C41.178 4.05904 41.1521 4.06697 41.1261 4.09083L40.7372 4.41655C40.7113 4.44041 40.6853 4.46427 40.6595 4.48012L37.9114 6.80818C37.8596 6.83204 37.8596 6.83996 37.8336 6.86382L37.4448 7.18962C37.4188 7.2134 37.393 7.23726 37.367 7.26112C37.1855 7.41205 37.0041 7.55513 36.8485 7.70606C36.7967 7.73785 36.7967 7.74577 36.7448 7.77756L35.4745 8.88194C35.3967 8.93758 35.319 9.01701 35.2412 9.08059C35.2153 9.10445 35.1893 9.1203 35.1635 9.14416L34.6449 9.59702C34.619 9.62088 34.5931 9.63682 34.5672 9.6606C34.5413 9.68446 34.5153 9.70832 34.4894 9.7321C34.3338 9.85132 34.1783 10.0022 34.0227 10.1215C33.9968 10.1453 33.9709 10.1612 33.945 10.185L33.7894 10.3122C33.7375 10.3598 33.7117 10.4075 33.6598 10.4472L33.5043 10.5743C33.4524 10.6299 33.4005 10.6618 33.3487 10.7094C33.2968 10.757 33.245 10.7968 33.1931 10.8366C33.1413 10.8763 33.0895 10.9319 33.0377 10.9716L32.7265 11.2339C32.4932 11.4563 32.2339 11.6549 32.0007 11.8853C31.7932 12.0601 31.5859 12.227 31.3785 12.4018L31.2229 12.5369C31.171 12.5766 31.1192 12.6242 31.0933 12.6719C31.0415 12.6957 31.0415 12.7037 30.9896 12.7354C30.9637 12.7593 30.9637 12.7752 30.9378 12.799L29.7192 13.8399C29.6673 13.8875 29.6155 13.9352 29.5636 13.975L29.097 14.3643C29.0451 14.4041 29.0192 14.4517 28.9674 14.4993C28.7859 14.6423 28.5266 14.8807 28.3451 15.0079L27.9823 15.3416C27.9563 15.3654 27.9304 15.3813 27.9044 15.4052C27.8007 15.5004 27.6193 15.6276 27.5156 15.7229L27.2822 15.9137C27.1785 15.9931 27.0748 16.0885 26.9711 16.168C26.9193 16.2077 26.8675 16.2474 26.8156 16.2871C26.5563 16.5017 26.2971 16.7003 26.0119 16.899C25.8303 17.0103 25.6748 17.1216 25.4933 17.2249C25.4414 17.2409 25.4154 17.2567 25.3895 17.2806C25.1561 17.3999 24.9486 17.5033 24.6892 17.5749C24.4817 17.6387 24.1444 17.7025 23.9368 17.6789C23.8849 17.671 23.833 17.6711 23.7811 17.6711L23.4178 17.6159C23.314 17.6003 23.2621 17.5844 23.1583 17.5686C22.5094 17.4503 22.0682 17.3476 21.3936 17.3007C21.3157 17.2928 21.2119 17.2851 21.1341 17.2772C20.8486 17.2616 20.5372 17.2699 20.2518 17.2702C20.148 17.2703 20.0961 17.2783 19.9923 17.2784C19.5512 17.2789 19.1621 17.3904 18.773 17.5257C18.4618 17.6213 18.2543 17.7564 17.995 17.8836C17.8652 17.9473 17.7356 18.0267 17.6319 18.0983L17.1393 18.448C16.9837 18.5434 16.88 18.6626 16.7244 18.7579L16.2837 19.1393C16.2319 19.1631 16.2319 19.179 16.2059 19.2028L13.821 21.3242C13.7691 21.348 13.7691 21.3719 13.7432 21.3957C13.6913 21.4275 13.6914 21.4354 13.6654 21.4592L11.9284 22.826C11.5913 23.0644 11.2542 23.3029 10.9171 23.5175L10.5541 23.7401C10.0874 24.0262 9.59462 24.3046 9.10188 24.559C8.84253 24.6862 8.58319 24.7976 8.32377 24.9169L7.90886 25.084C7.64943 25.2113 7.36415 25.3068 7.10481 25.4261L6.30076 25.7681C6.22293 25.8 6.17105 25.8239 6.0933 25.8477L5.10774 26.2852C4.64086 26.5 4.22595 26.7147 3.78509 26.9533C3.70726 26.9931 3.65538 27.0248 3.60358 27.0566L3.39612 27.2076L3.39661 27.6758L4.09721 27.675Z" fill="white"/>
</svg>
