<svg width="400" height="400" viewBox="0 0 400 400" fill="none" xmlns="http://www.w3.org/2000/svg">
<rect width="400" height="400" fill="#F2F2F2"/>
<path d="M216.667 177.778H216.722M150 222.222L177.778 194.444C182.933 189.483 189.289 189.483 194.444 194.444L222.222 222.222M211.111 211.111L216.667 205.556C221.822 200.594 228.178 200.594 233.333 205.556L250 222.222M150 166.667C150 162.246 151.756 158.007 154.882 154.882C158.007 151.756 162.246 150 166.667 150H233.333C237.754 150 241.993 151.756 245.118 154.882C248.244 158.007 250 162.246 250 166.667V233.333C250 237.754 248.244 241.993 245.118 245.118C241.993 248.244 237.754 250 233.333 250H166.667C162.246 250 158.007 248.244 154.882 245.118C151.756 241.993 150 237.754 150 233.333V166.667Z" stroke="#8F8F8F" stroke-width="8" stroke-linecap="round" stroke-linejoin="round"/>
</svg>
