<svg xmlns="http://www.w3.org/2000/svg" width="1440" height="267" viewBox="0 0 1440 267" fill="none">
    <path d="M1670 153.961C1670 198.754 1670 221.999 1670 266.792C1668.75 266.792 1667.3 267 1666.05 267C1035.15 267 404.053 267 -226.84 267C-227.672 267 -228.504 267 -229.336 267C-229.752 267 -230.376 266.792 -230.792 266.792C-230.792 266.375 -231 266.375 -231 266.167C-231 170.956 -231 97.2935 -231 2.29166C-231 1.66665 -231 1.04165 -230.792 0.416637V0.208287C-230.792 0.208287 -230.792 0.208337 -230.584 0C-215.815 0 -200.839 0 -185.654 0C-185.654 66.668 -185.654 133.336 -185.654 200.212C-184.198 200.212 -182.95 200.212 -181.494 200.212C-181.494 199.17 -181.494 198.129 -181.494 197.087C-181.494 163.545 -181.494 130.003 -181.494 96.2519C-181.494 95.2102 -181.494 94.3768 -181.286 93.3351C-169.429 93.3351 -157.781 93.3351 -145.924 93.3351C-145.924 128.961 -145.924 164.586 -145.924 200.212C-144.468 200.212 -143.22 200.212 -141.764 200.212C-141.764 191.254 -141.764 182.295 -141.764 173.337C-141.764 164.378 -141.764 155.42 -141.764 146.461C-141.764 137.503 -141.764 128.753 -141.764 119.794C-141.764 110.835 -141.764 102.085 -141.764 93.1268C-141.764 84.1683 -141.764 75.2098 -141.764 66.2513C-141.764 57.5011 -141.972 48.5426 -141.764 39.7924C-138.644 39.1674 -91.8416 39.3757 -90.1775 40.0007C-90.1775 41.6674 -90.1775 43.3341 -90.1775 45.0008C-90.1775 46.6675 -90.1775 48.5426 -90.1775 50.2093C-90.1775 51.876 -90.3855 53.5427 -89.7615 55.4177C-78.3209 55.4177 -67.0884 55.4177 -55.4399 55.4177C-55.4399 67.7096 -55.4399 79.5849 -55.4399 91.6684C-55.4399 103.752 -55.4399 115.836 -55.4399 127.919C-55.4399 140.003 -55.4399 151.878 -55.4399 163.962C-55.4399 176.045 -55.4399 188.129 -55.4399 200.004C-53.9838 200.004 -52.7357 200.004 -51.2797 200.004C-51.2797 159.378 -51.2797 118.961 -51.2797 78.5432C-48.5755 78.1265 -10.5098 78.1265 -8.84573 78.7515C-8.84573 82.0849 -8.84573 85.4183 -8.84573 88.96C-5.10156 89.1684 -1.77342 89.1684 1.97076 89.3767C1.97076 94.1685 1.97076 98.5436 1.97076 103.127C1.97076 107.71 1.97078 112.085 2.17879 116.877C3.63486 116.669 4.88289 116.669 6.13095 116.669C6.54697 116.669 6.963 116.252 6.963 116.044C7.37903 115.211 8.00304 115.002 8.83507 115.002C10.0831 114.794 11.3312 114.794 12.3712 114.794C23.6038 114.794 34.6283 114.794 45.8608 114.794C46.4849 114.794 47.1089 114.794 47.7329 115.002C47.9409 116.877 48.3569 118.752 48.5649 120.836C50.853 120.836 52.9331 120.836 55.0132 120.836C60.6295 120.836 66.0377 120.836 71.654 121.044C72.486 121.044 73.5261 121.461 74.3581 121.669C75.3982 121.877 76.4382 122.502 77.6862 122.502C80.1824 122.711 82.8865 122.502 85.3826 122.711C86.6307 122.711 87.6707 122.919 88.9188 123.127C88.9188 123.961 88.9188 124.377 88.9188 125.002C88.9188 148.961 88.7108 172.92 88.7108 196.879C88.7108 197.504 88.7108 198.129 88.7108 198.754C88.9188 200.212 89.1268 200.629 90.7909 200.629C91.6229 200.629 92.663 200.629 93.495 200.421C93.495 198.546 93.495 196.879 93.495 195.212C93.495 192.504 93.287 189.795 93.287 187.087C93.287 184.587 94.119 182.295 95.5751 180.212C97.2392 177.712 98.6952 175.212 100.359 172.92C100.567 172.503 100.775 172.087 100.983 171.67C99.7353 170.837 98.6953 170.003 97.4472 169.378C93.703 166.67 92.0389 163.128 92.663 158.545C93.287 152.086 98.0712 147.503 104.52 147.295C111.384 147.086 116.168 150.836 117.208 157.503C118.04 162.086 117 166.045 112.84 168.962C111.8 169.587 110.968 170.42 110.136 171.253C109.72 171.67 109.304 172.295 108.888 172.712C110.344 175.003 111.8 177.087 113.048 179.17C113.672 180.003 114.088 180.628 115.128 181.045C116.376 181.462 116.792 182.295 116.792 183.545C116.792 188.545 116.792 193.545 116.792 198.337C116.792 198.962 116.792 199.796 116.792 200.421C120.12 200.837 124.904 200.421 126.569 199.795C126.569 168.128 126.569 136.253 126.569 104.585C126.985 104.377 126.985 104.169 127.193 104.169C130.937 102.502 134.681 101.044 138.425 99.377C139.257 98.9603 140.089 99.1686 140.921 99.5853C143.417 100.835 146.121 101.877 148.618 103.335C151.946 105.002 151.946 105.21 151.946 108.96C151.946 137.503 151.946 166.045 151.946 194.587C151.946 196.045 151.946 197.295 152.154 198.754C152.362 200.629 152.778 200.837 155.066 200.421C155.066 199.587 155.066 198.962 155.066 198.129C155.274 175.628 155.69 153.128 155.898 130.836C155.898 130.419 155.898 130.211 155.898 129.794C155.898 128.752 156.522 128.127 157.354 127.919C160.266 127.294 162.97 127.711 165.674 128.961C165.674 131.044 164.01 132.711 164.842 135.003C165.882 132.711 167.546 131.461 169.21 130.211C170.043 129.794 170.667 129.169 171.291 128.336C172.123 127.086 173.163 126.877 174.619 126.669C175.243 126.669 175.867 126.461 176.283 126.044C176.907 125.627 177.531 124.794 178.155 124.169C178.779 123.544 179.195 122.919 178.987 121.877C178.571 121.461 177.947 121.044 177.531 120.836C177.531 119.586 177.739 118.752 178.987 118.544C182.315 117.711 185.435 117.919 188.555 118.961C188.971 120.211 189.179 121.252 188.139 122.294C187.515 122.711 187.515 123.752 187.099 124.586C187.515 124.794 187.931 124.794 188.139 124.794C191.884 125.002 194.796 126.878 197.292 129.586C198.332 130.628 199.58 131.252 200.62 132.086C201.244 132.503 201.868 132.711 202.492 133.128C202.492 135.211 202.492 137.503 202.492 139.586C203.116 137.086 203.116 134.794 202.7 132.294C202.7 131.878 202.492 131.461 202.284 131.253C201.244 130.628 201.452 129.586 201.452 128.544C205.196 127.294 208.732 126.877 212.477 128.961C212.269 129.794 212.06 130.419 211.852 131.044C211.644 131.461 211.645 132.086 211.645 132.503C211.853 135.628 212.477 138.544 212.477 141.669C212.685 150.836 212.685 160.211 212.685 169.378C212.685 178.962 212.477 188.545 212.477 198.337C212.477 199.171 212.477 200.004 212.477 200.629C215.597 200.629 218.717 200.629 221.629 200.629C221.629 193.962 221.629 187.295 221.629 180.629C221.005 180.42 220.381 180.212 219.757 180.003C218.925 179.587 217.885 179.378 217.053 178.753C215.805 177.92 215.805 177.295 217.053 176.462C217.677 176.045 218.301 175.628 218.925 175.42C220.173 174.795 221.629 174.378 222.877 173.753C224.333 173.128 224.541 172.92 224.333 171.253C224.333 170.42 224.125 169.587 223.709 168.753C223.293 167.712 223.501 166.878 224.333 166.253C224.957 165.628 225.997 165.628 227.037 166.253C227.869 166.67 227.869 167.503 227.453 168.128C227.245 168.753 227.037 169.378 226.829 170.003C226.205 173.128 226.621 173.545 229.533 174.17C229.949 174.17 230.365 174.378 230.781 174.378C231.405 174.587 232.029 174.795 232.653 175.212C233.693 175.837 234.318 176.878 234.11 178.128C234.11 179.379 233.069 179.587 232.029 180.003C231.197 180.212 230.157 180.42 229.325 180.629C229.325 187.295 229.325 193.962 229.325 200.629C232.862 200.629 236.398 200.629 239.934 200.629C239.934 199.587 240.142 198.754 240.142 198.129C240.35 190.42 240.558 182.712 240.558 175.212C240.558 173.545 240.558 172.087 239.726 170.42C238.894 169.17 239.518 168.128 240.974 167.503C241.598 167.295 242.222 167.087 242.846 167.087C244.094 167.087 245.55 167.087 247.006 167.087C248.878 167.087 249.086 167.503 248.878 169.378C248.462 172.503 248.046 175.628 248.046 178.753C248.046 185.629 248.462 192.504 248.67 199.379C248.67 199.796 248.878 200.212 248.878 200.837C251.166 200.837 253.454 200.837 255.743 200.837C255.743 199.795 255.743 198.754 255.743 197.921C255.951 194.17 256.159 190.629 256.575 186.879C256.783 185.212 257.615 184.17 259.071 183.545C260.735 182.92 261.983 181.67 263.023 180.212C263.231 179.795 263.647 179.587 263.855 179.17C264.687 180.212 265.519 181.879 267.391 180.837C267.599 175.42 267.599 170.212 267.807 164.795C272.383 164.378 337.282 164.587 339.154 165.212C339.154 165.837 339.154 166.67 339.154 167.295C339.154 171.253 339.154 175.212 339.154 179.378C339.154 180.837 339.778 181.254 341.026 180.629C341.65 180.212 342.275 180.42 342.691 180.629C343.523 181.045 344.355 181.67 345.395 182.087C349.347 184.587 351.219 188.129 351.011 192.712C350.803 194.795 350.803 196.879 350.595 198.962C350.595 199.587 350.595 200.421 350.595 201.046C352.883 201.046 354.755 201.046 356.835 201.046C356.835 200.004 357.043 198.962 357.043 198.129C357.043 195.42 357.251 192.504 357.251 189.795C357.459 184.795 357.459 179.795 357.667 174.795C357.667 173.545 357.667 172.087 356.835 170.837C356.419 170.42 356.627 169.587 356.419 168.962C359.747 167.92 362.867 167.92 365.988 168.753C363.908 179.587 365.156 190.212 365.572 201.046C368.692 201.046 371.396 201.046 374.724 201.046C374.308 200.212 374.1 199.379 373.684 198.754C371.812 196.045 371.812 193.337 373.476 190.629C373.684 190.42 373.892 190.004 373.892 189.795C374.516 187.92 375.14 186.045 375.556 184.17C375.972 181.878 375.972 179.795 375.972 177.503C375.972 171.462 375.764 165.42 375.764 159.378C375.764 157.086 375.348 155.211 374.1 153.128C373.476 152.086 373.268 150.42 373.268 148.961C373.268 148.336 374.724 147.711 375.348 147.086C375.348 147.086 375.556 146.878 375.764 146.878C377.012 146.253 377.22 145.419 377.22 143.961C377.012 142.503 377.22 141.044 377.22 139.586C377.012 127.086 376.596 114.794 377.22 102.294C377.22 100.627 377.428 99.1686 377.636 97.5019C378.052 97.9185 378.26 98.1269 378.26 98.5436C378.468 102.502 378.884 106.46 378.884 110.419C378.884 121.252 378.676 132.086 378.468 142.711C378.468 144.794 378.676 146.253 380.756 147.295C382.836 148.336 383.252 151.878 381.796 153.545C380.34 155.211 379.924 157.086 379.924 159.17C379.924 165.003 379.716 170.837 379.924 176.67C379.924 181.67 380.34 186.67 382.628 191.254C383.668 193.337 383.46 195.212 382.212 197.296C381.588 198.337 381.172 199.796 380.34 201.254C384.5 201.046 388.245 200.837 392.197 200.837C392.405 183.337 392.613 166.045 392.613 148.753C399.269 145.628 406.133 144.794 413.414 145.003C413.206 163.545 413.206 182.087 412.998 200.837C414.246 200.004 413.83 198.962 414.038 198.129C414.246 182.295 414.246 166.462 414.454 150.628C414.454 148.128 414.454 145.836 414.662 143.336C414.662 142.086 414.246 141.044 412.998 140.628C412.79 140.419 412.582 140.419 412.374 140.211C411.126 139.586 410.71 138.544 410.502 137.294C410.502 135.211 410.502 133.128 410.294 131.253C410.294 130.003 410.502 129.377 411.75 128.961C413.414 128.336 415.078 127.294 416.534 126.461C419.862 124.586 421.526 121.877 421.942 118.127C422.358 115.002 422.774 112.086 423.398 108.752C424.438 111.669 425.27 114.377 424.854 117.294C424.438 120.419 425.478 122.502 427.974 123.961C428.599 124.377 429.223 125.002 430.055 125.419C432.135 126.669 434.215 128.127 436.503 129.377C437.335 129.794 437.751 130.419 437.751 131.461C437.751 133.336 437.543 135.419 437.543 137.294C437.543 138.336 437.127 139.169 436.295 139.794C435.879 140.211 435.463 140.419 434.839 140.628C434.007 141.044 433.799 141.669 433.591 142.294C433.383 144.378 434.215 145.211 436.295 145.211C442.535 145.211 448.568 146.878 454.808 148.753C454.808 166.253 454.808 183.754 454.808 201.046C458.968 201.879 461.256 200.837 463.128 197.504C463.336 197.087 463.544 196.462 463.96 196.045C464.584 195.004 465.416 194.379 466.664 194.379C467.704 194.17 468.744 194.17 469.784 194.17C471.656 193.962 473.113 193.337 474.361 191.879C474.985 191.045 475.609 190.212 476.025 189.17C476.649 187.92 477.273 186.462 477.689 185.004C478.729 181.254 479.561 177.503 480.393 173.753C477.481 171.878 474.569 171.253 471.448 171.253C472.073 175.003 473.945 177.503 477.065 179.17C477.065 180.003 477.065 180.837 477.273 181.67C474.985 181.462 473.113 180.837 472.073 178.962C470.824 176.462 469.576 173.962 468.536 171.462C467.704 169.587 468.328 168.753 470.408 168.753C471.865 168.753 473.321 168.753 474.777 168.753C475.817 168.753 476.441 168.337 476.441 167.295C476.649 164.17 476.857 161.045 476.857 157.92C476.857 156.67 476.857 155.211 475.817 153.753C474.777 156.045 476.857 158.545 474.777 160.211C473.529 160.211 472.489 159.795 471.865 158.545C470.616 156.045 469.368 153.753 468.12 151.253C467.496 150.003 466.872 148.753 466.248 147.503C467.704 146.878 468.952 146.253 470.201 145.836C475.401 143.753 480.393 144.586 484.553 148.128C485.593 148.961 486.633 150.003 487.673 150.836C488.089 151.253 488.713 151.461 489.129 151.461C491.833 151.253 493.498 149.586 494.122 146.878C493.082 145.419 491.417 144.795 489.961 144.169C488.089 143.128 486.009 142.294 484.137 141.044C483.513 140.628 482.889 140.211 482.473 139.169C484.969 140.003 487.049 140.628 489.337 141.461C491.209 142.086 493.081 142.503 494.954 142.086C496.41 141.878 496.618 141.461 496.826 140.003C497.034 138.128 497.242 136.044 498.074 134.378C498.282 133.961 498.698 133.336 499.114 133.128C500.778 132.503 502.442 132.086 504.106 131.461C503.482 133.544 502.65 135.628 502.026 137.711C501.402 140.211 501.818 141.253 504.106 142.294C505.562 142.919 507.018 143.336 508.474 143.753C510.762 144.378 511.594 145.003 511.802 147.503C511.802 147.92 512.01 148.545 512.01 149.17C513.258 149.17 514.298 148.961 515.339 149.17C516.379 149.378 517.419 149.795 518.875 150.003C518.043 151.461 517.003 152.295 515.547 152.295C514.09 152.295 512.634 152.086 511.178 151.67C509.098 150.836 507.226 149.586 505.146 148.545C504.522 148.128 503.69 147.711 503.066 147.295C502.234 148.961 501.818 150.836 501.61 152.503C501.61 154.378 502.234 156.045 504.106 157.086C505.146 157.711 506.186 158.336 507.434 158.545C513.466 160.003 519.291 162.087 525.531 161.878C527.403 161.878 528.651 162.711 529.275 164.378C529.899 166.253 530.523 168.128 530.731 170.003C531.147 174.587 531.355 179.17 531.563 183.754C531.563 184.17 531.563 184.587 531.563 185.212C529.691 184.587 529.067 183.337 528.651 181.879C527.403 177.503 525.739 173.128 525.323 168.545C525.115 166.462 523.867 165.42 521.787 164.587C521.579 166.045 521.163 167.087 521.163 168.337C520.747 171.253 520.123 174.17 518.251 176.462C518.043 176.878 517.835 177.295 517.627 177.712C517.211 178.753 517.627 179.378 518.251 180.003C519.707 181.045 521.163 181.67 523.035 181.462C524.491 184.17 524.907 187.087 525.739 189.795C526.571 192.504 526.987 195.42 527.611 198.129C527.819 198.337 528.027 198.337 528.027 198.337C530.731 198.337 533.019 198.754 534.891 200.837C535.099 201.046 535.516 201.254 535.932 201.254C536.972 201.254 538.012 201.254 539.468 201.254C539.468 200.212 539.468 199.379 539.468 198.546C539.676 185.004 539.676 171.462 539.884 157.92C539.884 157.086 539.884 156.253 540.092 155.211C541.132 155.211 541.756 155.211 542.588 155.211C548.828 155.211 555.276 155.211 561.517 155.211C563.389 155.211 563.597 155.003 564.013 153.336C564.013 152.92 564.221 152.503 564.221 152.086C564.637 149.378 565.261 148.753 567.757 148.753C576.493 148.753 585.438 148.753 594.174 148.753C594.798 148.753 595.422 148.753 596.046 148.961C596.254 164.587 596.462 180.003 596.462 195.629C598.542 193.962 599.583 191.462 601.455 189.795C601.663 192.295 601.663 194.795 601.663 197.296C601.663 199.796 601.663 202.087 601.663 204.587C603.119 204.587 604.367 204.587 605.615 204.587C605.615 203.962 605.823 203.546 605.823 203.129C605.823 201.046 605.823 198.754 606.031 196.67C606.239 181.67 607.279 166.878 604.991 152.086C604.575 148.753 603.951 145.628 602.495 142.711C601.663 141.253 601.247 139.586 600.831 137.919C600.206 135.211 601.247 132.919 603.743 131.669C604.991 131.044 606.447 130.419 607.903 130.211C609.775 129.794 611.647 129.586 613.727 129.169C613.727 128.544 613.935 127.919 613.935 127.294C614.143 124.586 614.351 121.669 614.351 118.961C614.559 113.752 616.431 109.585 619.967 105.835C623.504 102.085 627.664 99.3769 632.448 97.5019C635.568 96.2518 637.648 94.3768 637.648 90.8351C637.856 91.0434 638.064 91.0434 638.064 91.2517C638.48 93.7518 640.144 95.0018 642.224 96.0435C643.68 96.6685 644.929 97.5019 646.385 98.3353C648.673 99.7936 651.169 101.46 653.457 103.127C657.617 106.669 660.113 111.252 660.737 116.461C661.153 120.002 661.153 123.544 661.361 127.086C661.361 127.919 661.361 128.753 661.361 129.586C662.193 129.794 663.025 130.003 663.649 130.211C666.146 130.836 668.642 131.461 671.138 132.294C675.09 133.753 675.506 134.794 674.05 138.753C673.218 141.044 671.97 143.128 671.138 145.419C670.514 146.878 669.89 148.128 669.89 149.586C669.266 157.503 668.226 165.42 668.434 173.337C668.642 181.254 668.434 189.17 668.642 197.087C668.642 199.587 668.85 202.087 669.474 204.379C672.386 205.212 673.218 204.587 674.05 201.879C674.258 201.254 674.466 200.421 674.466 199.795C679.666 199.795 684.658 199.587 689.859 199.587C690.691 195.42 691.315 191.254 691.315 187.295C691.315 183.962 689.859 181.253 687.363 178.962C683.41 175.42 681.538 175.003 676.754 177.295C675.506 177.712 674.466 178.337 673.218 178.962C673.218 178.128 673.01 177.712 673.01 177.295C672.802 170.837 672.802 164.378 673.426 157.711C673.842 152.92 674.882 148.128 677.17 143.753C678.002 142.086 678.626 140.211 679.25 138.336C680.082 135.211 679.666 132.294 677.17 130.002C676.962 129.794 676.962 129.586 676.754 129.169C679.458 128.336 681.954 127.711 684.242 126.877C689.235 125.211 694.019 123.336 699.011 121.461C701.715 120.419 703.795 118.544 704.835 115.836C705.459 113.96 706.915 112.919 708.788 112.71C713.78 111.877 718.772 111.669 723.764 112.71C726.052 113.127 728.132 114.169 729.38 116.461C730.004 117.502 730.836 118.336 731.461 119.169C732.293 120.419 733.333 121.252 734.789 121.877C736.245 122.294 737.701 122.711 739.157 123.127C741.653 123.752 744.149 123.961 746.645 124.586C761.414 128.544 774.935 135.419 787.415 144.169C796.151 150.42 804.68 157.086 811.336 165.837C811.96 166.462 812.376 167.295 813.208 167.712C814.456 168.753 815.912 169.378 817.369 170.42C818.409 171.045 819.449 171.878 820.489 172.712C821.321 173.545 822.153 174.587 822.985 175.42C823.193 175.628 823.609 176.045 824.233 176.462C824.857 166.462 825.273 156.878 825.897 147.295C835.881 146.045 845.45 144.794 855.226 143.753C855.226 142.503 855.434 141.461 855.434 140.419C855.642 131.878 855.85 123.336 856.058 114.794C856.058 112.085 856.682 111.252 859.386 110.419C861.05 110.002 862.714 109.794 864.379 109.377C867.083 108.752 869.787 108.335 872.491 107.71C874.155 107.294 874.155 107.085 874.155 105.419C874.155 102.71 874.363 100.002 874.363 97.2936C874.363 96.4602 874.571 95.6269 874.571 94.7935C876.235 94.5852 877.899 94.1685 879.563 94.1685C886.428 93.9602 893.084 93.5435 899.948 93.3351C914.509 93.3351 929.07 93.5435 943.63 94.3768C944.878 94.3768 945.918 95.0018 946.542 96.0435C947.375 97.7102 948.83 98.3352 950.703 98.5436C952.575 98.7519 954.447 99.1686 956.319 99.5853C960.895 100.627 961.519 101.669 961.311 106.252C961.103 111.252 961.103 116.461 960.895 121.461C960.895 122.086 961.103 122.919 961.103 123.544C961.519 123.752 961.727 123.752 961.935 123.752C965.679 124.169 969.423 124.586 972.96 125.002C977.744 125.627 982.528 126.669 987.104 127.294C987.936 127.502 988.56 127.711 989.392 127.919C989.184 130.211 988.976 132.503 988.768 135.003C987.312 134.169 986.064 133.336 984.608 133.961C984.608 134.378 984.4 134.794 984.4 135.003C983.984 140.419 983.36 145.628 983.36 151.045C983.36 165.42 983.568 179.795 983.776 194.17C983.776 194.587 983.984 195.212 983.984 195.837C985.648 195.837 987.312 196.254 988.976 195.42C988.976 184.587 988.976 173.545 988.976 162.711C1002.7 164.795 1016.23 166.878 1028.91 172.92C1028.91 174.795 1028.29 176.67 1028.71 178.962C1031.2 178.962 1033.49 178.962 1036.19 178.962C1036.19 186.67 1036.19 194.17 1036.19 201.671C1037.44 201.671 1038.48 201.879 1039.52 201.879C1040.56 201.879 1040.98 201.462 1041.39 200.629C1041.81 199.379 1042.23 198.129 1042.85 197.087C1043.68 195.212 1044.31 193.129 1044.31 191.045C1044.31 190.004 1044.51 188.962 1044.51 187.92C1044.72 183.754 1044.93 179.795 1044.31 175.837C1043.89 173.128 1042.64 171.253 1039.73 171.045C1039.31 171.045 1039.11 170.837 1038.69 170.837C1036.4 170.42 1034.74 169.17 1033.7 167.295C1032.87 165.628 1032.03 164.17 1031.41 162.295C1028.91 155.211 1028.5 147.92 1028.91 140.628C1028.91 140.419 1029.12 140.211 1029.12 139.794C1030.37 139.794 1031.62 139.794 1032.87 139.794C1033.49 139.794 1034.11 139.794 1034.74 139.586C1037.44 138.753 1040.15 137.503 1043.06 136.669C1044.31 136.253 1044.93 135.419 1045.14 134.169C1045.35 132.919 1045.97 131.669 1046.39 130.211C1047.84 130.836 1049.3 130.419 1050.34 131.669C1050.55 131.878 1051.17 132.086 1051.59 132.086C1052.63 132.086 1053.67 131.878 1054.71 131.669C1061.57 130.211 1068.44 128.753 1075.3 127.503C1077.8 127.086 1079.67 126.461 1080.08 123.544C1080.29 122.294 1081.12 122.086 1082.37 122.294C1083.83 122.502 1084.87 123.336 1085.7 124.377C1086.74 125.627 1087.78 126.669 1089.44 126.877C1089.86 126.044 1090.28 125.211 1090.69 124.586C1092.36 123.961 1093.4 125.419 1094.65 126.044C1095.06 125.419 1095.27 125.002 1095.69 124.377C1097.56 125.627 1099.43 125.002 1101.3 124.169C1101.72 123.961 1102.55 123.752 1102.76 124.169C1103.8 125.211 1104.84 124.586 1105.88 124.586C1107.54 124.377 1109 123.961 1110.66 123.752C1112.74 123.336 1115.03 123.127 1117.11 122.711C1117.94 122.502 1118.98 121.877 1119.61 121.252C1122.1 118.336 1124.39 115.211 1126.89 112.502C1128.97 110.21 1131.05 107.919 1133.34 106.044C1136.04 103.752 1138.95 101.877 1141.86 99.7935C1146.86 96.4601 1152.26 94.1685 1158.09 93.1268C1160.17 92.7102 1162.04 92.2934 1163.91 91.46C1165.99 90.6267 1166.62 89.3767 1166.2 87.085C1165.78 85.6266 1166.2 84.5849 1167.24 83.7516C1167.45 83.5433 1167.86 83.335 1168.28 83.335C1169.53 83.335 1170.57 84.7933 1170.36 86.0433C1170.36 86.46 1170.15 86.8767 1170.15 87.2934C1169.74 89.3767 1170.57 90.835 1172.65 91.46C1174.1 91.8767 1175.56 92.2935 1177.23 92.7101C1180.97 93.9602 1184.92 94.7935 1188.67 96.2519C1198.03 100.21 1205.51 106.877 1212.38 114.377C1212.59 114.585 1212.59 114.586 1212.79 114.794C1215.08 118.544 1218.62 121.461 1220.28 125.627C1220.28 125.836 1220.49 125.836 1220.91 126.044C1221.32 125.211 1221.95 124.377 1222.16 123.544C1222.36 122.711 1222.99 122.294 1223.82 122.294C1224.44 122.294 1224.86 122.502 1225.48 122.502C1225.69 123.544 1225.9 124.586 1226.11 125.627C1227.36 124.586 1226.94 122.294 1228.81 122.294C1230.68 123.336 1230.89 125.627 1232.97 126.669C1232.97 125.419 1233.18 124.586 1233.18 123.544C1234.22 123.544 1235.05 123.544 1235.88 123.544C1236.09 124.377 1236.09 125.002 1236.3 126.044C1237.55 125.002 1238.38 124.169 1239.42 123.336C1240.25 124.377 1240.88 125.211 1241.5 126.044C1243.16 125.211 1243.79 123.336 1245.87 123.961C1246.08 124.377 1246.28 124.794 1246.49 125.002C1248.57 125.002 1250.03 123.544 1252.32 123.961C1251.48 126.461 1253.15 127.711 1254.81 129.169C1256.48 130.628 1258.14 132.294 1259.8 133.544C1261.05 134.586 1261.68 135.836 1261.68 137.503C1261.47 144.794 1261.47 152.086 1261.26 159.378C1261.26 162.295 1261.26 165.212 1261.05 168.128C1261.05 168.753 1260.84 169.587 1260.84 170.42C1259.39 169.378 1258.14 168.753 1257.1 167.92C1255.64 166.878 1254.6 166.878 1252.94 167.712C1247.12 170.628 1244 175.42 1242.75 181.879C1241.71 187.295 1241.92 192.712 1242.12 198.129C1242.12 199.171 1242.33 200.421 1242.33 201.462C1245.24 201.879 1263.13 201.671 1264.8 201.254C1264.8 196.879 1264.8 192.295 1264.8 187.712C1264.8 183.129 1264.8 178.545 1264.8 174.17C1264.8 169.587 1264.8 165.003 1264.8 160.628C1264.8 156.045 1264.8 151.461 1264.8 147.086C1264.8 142.503 1264.59 138.128 1264.8 133.544C1270.41 133.128 1526.68 132.294 1528.55 132.919C1528.55 133.336 1528.76 133.753 1528.76 134.378C1528.76 140.003 1528.97 145.628 1528.97 151.253C1528.76 162.086 1528.97 172.92 1529.39 183.545C1529.59 189.17 1529.8 194.587 1530.01 200.212C1530.01 200.629 1530.22 201.254 1530.22 201.671C1532.51 201.879 1532.71 201.879 1532.71 199.795C1532.71 199.17 1532.71 198.546 1532.71 197.921C1532.51 190.212 1532.3 182.295 1532.3 174.587C1532.3 167.712 1532.09 160.836 1532.09 153.961C1532.09 152.503 1532.3 151.045 1532.92 149.795C1533.75 147.711 1534.17 145.628 1534.17 143.336C1534.17 141.253 1534.17 139.169 1533.96 137.086C1533.96 133.961 1535.63 131.461 1537.5 129.377C1538.33 128.336 1539.58 128.128 1540.83 128.544C1540.83 129.169 1540.83 129.586 1540.83 130.419C1542.49 129.586 1544.15 129.586 1545.19 127.711C1545.4 127.502 1545.61 127.294 1545.82 127.086C1547.27 126.669 1548.11 125.627 1549.15 124.794C1550.39 123.752 1551.85 123.127 1552.89 122.086C1553.72 121.252 1554.97 120.836 1556.01 119.794C1556.63 119.169 1557.47 118.961 1558.3 118.544C1559.96 117.711 1561 116.669 1561.63 114.794C1562.04 113.752 1561.83 113.127 1560.79 112.502C1561.42 111.461 1561.63 110.627 1561.42 109.169C1561.42 108.752 1561 108.335 1560.59 107.71C1562.04 106.46 1561.42 105.002 1561.42 103.544C1561 103.335 1560.79 103.335 1560.38 103.127V102.919C1561 101.46 1562.67 99.7936 1560.38 97.9186C1561.42 96.4602 1561.83 95.0019 1561.42 93.1268C1560.38 93.5435 1559.13 93.7517 1558.71 94.5851C1557.47 96.6685 1554.76 96.6685 1553.72 98.7518C1553.72 98.9602 1553.31 98.9603 1553.1 98.9603C1551.23 100.21 1549.35 101.252 1547.48 102.502C1547.27 102.502 1547.27 102.919 1547.27 102.919C1547.07 103.127 1546.86 103.752 1546.44 103.752C1544.57 104.377 1543.32 105.835 1541.87 107.085C1539.58 109.377 1536.87 109.377 1533.96 108.96C1533.75 106.877 1533.55 104.794 1533.75 102.71C1533.75 90.0017 1533.96 77.2932 1533.96 64.3762C1533.96 61.0428 1533.75 57.7094 1532.51 54.5844C1531.88 52.7093 1531.05 50.8343 1530.43 48.9593C1530.22 48.5426 1530.22 47.9176 1530.01 47.2925C1530.63 47.0842 1531.05 47.0842 1531.47 47.0842C1534.79 46.4592 1535.42 45.4175 1535.63 42.0841C1535.63 41.6674 1535.63 41.2508 1535.63 40.8341C1535.63 36.459 1535.63 32.0839 1535.63 27.7088C1535.63 23.1254 1534.79 18.7503 1531.67 15.2086C1530.43 13.7502 1529.59 12.0835 1528.97 10.0002C1530.01 9.79183 1531.05 9.37518 1532.09 9.37518C1533.96 9.58352 1535.21 8.75016 1535.83 7.08346C1536.46 5.83343 1537.29 5.41672 1538.54 5.41672C1546.03 5.62506 1553.51 5.62507 1560.79 5.62507C1562.04 5.62507 1563.29 5.62511 1563.91 7.29181C1564.12 7.70848 1564.75 8.12516 1565.37 8.3335C1566.2 8.75017 1567.04 8.9585 1567.87 9.16683C1569.12 9.58351 1570.16 10.2085 1570.78 11.2502C1571.82 13.1252 1572.24 15.2086 1572.44 17.0836C1572.24 17.292 1572.24 17.292 1572.24 17.292C1572.03 17.5003 1571.61 17.7087 1571.4 17.7087C1568.28 18.9587 1567.04 21.2504 1567.04 24.5838C1567.04 30.0006 1567.04 35.4173 1567.04 40.8341C1567.04 43.9591 1567.66 47.0842 1569.95 49.5843C1571.61 51.4593 1571.4 53.5427 1570.16 55.626C1568.7 58.1261 1568.28 60.6262 1568.08 63.3346C1567.87 69.5847 1567.66 75.6264 1567.66 81.8766C1567.66 99.1686 1567.87 116.461 1568.08 133.753C1568.08 137.919 1568.28 142.086 1568.28 146.461C1568.28 147.503 1568.49 148.336 1569.74 148.753C1572.24 149.586 1573.69 151.461 1574.94 153.753C1575.56 155.003 1576.4 155.211 1577.44 155.211C1578.06 155.211 1578.89 155.211 1579.52 155.211C1609.05 155.211 1638.38 155.211 1667.92 155.211C1668.34 153.545 1669.17 153.753 1670 153.961ZM1181.59 200.004C1181.8 192.504 1182.01 185.42 1182.01 178.337C1182.01 176.253 1181.8 174.17 1181.59 172.087C1180.55 165.211 1177.23 160.003 1171.19 156.461C1170.15 155.836 1169.11 155.836 1168.07 156.253C1162.87 158.545 1159.75 162.711 1158.09 167.92C1157.05 171.253 1156.42 174.587 1156.42 177.92C1156.42 185.004 1156.63 192.295 1156.84 199.379C1156.84 199.587 1157.05 199.796 1157.05 200.004C1164.95 200.004 1173.27 200.004 1181.59 200.004ZM1222.99 200.004C1222.99 199.587 1223.2 199.379 1223.2 198.962C1223.2 192.295 1223.4 185.837 1223.4 179.17C1223.4 171.67 1219.66 166.045 1213.63 161.878C1211.34 160.211 1209.67 160.211 1207.59 161.878C1201.98 166.253 1198.44 171.878 1198.44 179.17C1198.44 185.212 1198.44 191.462 1198.44 197.504C1198.44 198.337 1198.44 198.962 1198.44 199.795C1206.76 200.004 1214.87 200.004 1222.99 200.004ZM1136.04 200.004C1136.04 199.379 1136.25 199.17 1136.25 198.754C1136.25 191.879 1136.25 185.212 1136.25 178.337C1136.25 176.878 1136.04 175.42 1135.62 174.17C1134.17 168.962 1130.63 165.42 1126.47 162.503C1124.81 161.461 1123.56 161.461 1122.1 162.503C1117.73 165.212 1114.41 168.753 1112.74 173.545C1112.12 175.212 1111.7 177.087 1111.7 178.962C1111.49 185.42 1111.7 191.879 1111.7 198.546C1111.7 198.962 1111.91 199.587 1111.91 200.004C1119.61 200.004 1127.72 200.004 1136.04 200.004ZM1096.31 200.004C1096.31 199.587 1096.52 199.17 1096.52 198.754C1096.52 193.962 1096.52 189.17 1096.31 184.379C1095.89 177.295 1092.57 171.878 1086.32 168.337C1084.87 167.503 1083.83 167.503 1082.37 168.337C1075.92 172.295 1071.76 177.92 1071.35 185.837C1071.14 190.212 1071.35 194.587 1071.35 198.754C1071.35 199.17 1071.56 199.587 1071.56 200.004C1079.88 200.004 1087.99 200.004 1096.31 200.004ZM630.784 147.503C624.752 147.086 618.927 146.878 612.895 146.461C612.687 148.336 612.687 149.795 612.479 151.461C612.063 154.586 611.231 157.711 611.231 160.628C611.023 173.753 611.023 186.879 611.023 199.795C611.023 203.337 611.231 203.337 614.767 202.921C614.975 202.921 614.975 202.712 615.183 202.712C615.183 202.296 615.391 201.671 615.183 201.254C615.183 197.295 614.975 193.337 614.975 189.379C614.975 184.587 614.975 179.587 615.183 174.795C615.183 172.295 616.223 170.42 618.511 169.378C621.423 167.92 623.919 165.836 626 163.336C626.416 162.92 627.04 162.503 627.664 161.878C627.664 162.503 627.664 162.92 627.664 163.128C627.664 175.42 627.872 187.712 627.872 200.004C627.872 202.921 628.288 203.337 631.2 202.921C631.408 202.921 631.616 202.712 631.824 202.712C632.24 200.421 631.408 150.628 630.784 147.503ZM1563.71 45.2092C1563.71 44.7925 1563.91 44.5842 1563.91 44.3758C1563.91 40.2091 1564.12 35.834 1564.12 31.6672C1564.12 29.1672 1563.71 26.6671 1563.5 24.1671C1563.29 22.7087 1562.46 21.4587 1561.42 20.6254C1560.17 19.3754 1558.92 19.3754 1557.67 20.8337C1557.47 21.0421 1557.26 21.2504 1557.05 21.4587C1555.39 22.9171 1554.55 22.9171 1553.1 21.2504C1551.23 19.167 1549.35 19.167 1548.11 21.4587V21.6671C1547.27 22.7088 1545.82 22.9171 1544.78 21.8754C1544.36 21.4587 1544.15 21.0421 1543.74 20.6254C1542.91 19.792 1541.45 19.5837 1540.83 20.2087C1538.75 21.8754 1537.08 23.9588 1536.87 26.8755C1536.67 29.7922 1536.67 32.7089 1536.67 35.6256C1536.67 38.5424 1537.08 41.2508 1537.29 44.1675C1537.29 44.5842 1537.5 45.2092 1537.5 45.8342C1546.23 45.2092 1554.97 45.2092 1563.71 45.2092ZM1436.2 151.253C1436.2 151.878 1435.99 152.295 1435.99 152.92C1435.99 166.045 1435.99 179.378 1435.99 192.504C1435.99 193.129 1436.2 193.754 1436.2 194.17C1441.4 194.17 1446.18 194.17 1451.38 194.17C1451.38 179.795 1451.38 165.42 1451.17 151.253C1445.97 151.253 1441.19 151.253 1436.2 151.253ZM1474.47 194.17C1474.26 179.795 1474.26 165.42 1474.05 151.253C1468.85 151.253 1463.86 151.253 1458.87 151.253C1458.87 165.628 1458.87 179.795 1458.87 194.17C1464.07 194.17 1469.27 194.17 1474.47 194.17ZM1359.03 194.17C1359.03 179.795 1359.03 165.628 1359.03 151.461C1354.03 151.461 1349.04 151.045 1344.26 151.253C1343.84 154.795 1343.84 192.712 1344.26 194.17C1349.04 194.17 1353.83 194.17 1359.03 194.17ZM1366.93 151.461C1366.51 153.961 1366.51 192.712 1366.93 194.17C1371.92 194.17 1376.71 194.17 1381.7 194.17C1382.11 191.879 1381.91 152.92 1381.49 151.461C1376.71 151.461 1371.71 151.461 1366.93 151.461ZM1428.08 194.17C1428.08 179.795 1428.08 165.628 1428.08 151.253C1423.09 151.253 1418.1 151.253 1413.32 151.253C1412.9 153.961 1412.9 192.504 1413.32 193.962C1418.31 194.17 1423.09 194.17 1428.08 194.17ZM644.513 202.921C645.969 202.921 647.217 202.921 648.465 202.921C648.465 201.046 648.673 199.171 648.673 197.296C649.089 197.296 649.505 197.295 649.713 197.087C650.129 197.087 650.337 197.087 650.753 197.087C652.001 196.879 652.833 196.254 653.041 195.212C653.873 191.462 654.705 187.504 655.329 183.545C655.745 180.628 654.705 177.92 652.417 175.837C651.585 175.003 650.545 174.378 649.505 173.753C648.881 173.337 648.465 172.92 648.465 172.087C648.465 167.92 648.257 163.753 648.257 159.586C648.257 157.086 648.881 154.586 650.337 152.295C653.457 152.295 656.369 152.295 659.073 152.295C660.529 155.211 660.945 158.128 660.945 161.045C660.945 173.753 660.945 186.462 660.945 199.379C660.945 199.796 660.945 200.212 660.945 200.629C660.945 201.879 661.777 202.712 663.025 202.921C664.273 203.129 664.897 202.504 665.105 201.046C665.313 199.379 665.313 197.712 665.313 196.254C665.313 190.837 665.105 185.629 665.105 180.212C665.313 170.003 664.481 160.003 664.065 150.003C664.065 149.586 663.857 149.17 663.857 148.545C663.441 148.545 663.025 148.336 662.609 148.336C660.321 148.128 657.825 148.128 655.537 147.92C653.457 147.92 651.169 147.711 649.089 147.711C646.385 147.919 645.137 148.753 644.721 151.461C644.305 153.961 644.096 156.461 644.096 158.961C644.096 172.92 644.097 186.879 644.305 200.837C644.513 201.671 644.513 202.296 644.513 202.921ZM1320.96 151.461C1320.96 156.253 1320.96 161.045 1320.96 165.837C1320.96 170.628 1320.96 175.42 1320.96 180.003C1320.96 184.795 1320.75 189.379 1321.17 194.17C1326.16 194.17 1330.94 194.17 1335.94 194.17C1335.73 179.795 1335.73 165.628 1335.31 151.461C1330.32 151.461 1325.74 151.461 1320.96 151.461ZM976.496 202.087C976.496 201.254 976.496 200.421 976.496 199.795C976.496 182.087 976.496 164.17 976.496 146.461C976.496 145.419 976.496 144.378 976.288 143.336C975.872 141.253 974.624 140.003 972.751 139.794C972.127 139.586 971.504 139.586 970.672 139.586C968.799 139.586 967.343 140.628 966.927 142.503C966.511 143.961 966.511 145.211 966.511 146.669C966.511 164.378 966.511 182.295 966.511 200.004C966.511 200.629 966.511 201.254 966.719 202.087C969.839 202.087 972.96 202.087 976.496 202.087ZM1390.43 151.461C1390.43 165.628 1390.43 179.795 1390.43 193.962C1392.72 194.379 1403.54 194.17 1405.2 193.545C1405 179.587 1404.79 165.628 1404.58 151.461C1399.8 151.461 1395.22 151.461 1390.43 151.461ZM515.755 182.92C514.298 181.879 513.466 181.045 512.426 180.42C510.346 179.17 508.474 177.92 507.434 175.212C506.81 173.337 505.978 173.128 504.106 173.337C501.61 173.545 498.906 173.545 496.41 173.753C493.29 173.962 490.169 174.17 487.257 175.212C485.593 175.837 484.137 176.67 483.305 178.337C481.017 182.712 478.729 187.295 476.441 191.67C476.233 191.879 476.233 192.295 476.025 192.92C486.633 193.754 497.242 194.587 507.85 195.212C508.058 194.379 508.058 193.962 508.266 193.337C508.474 190.004 509.93 187.504 512.842 185.629C513.674 185.212 514.506 184.17 515.755 182.92ZM954.655 203.129C954.655 202.504 954.863 202.296 954.863 202.087C954.863 184.379 954.863 166.878 954.863 149.17C954.863 148.128 954.655 146.878 954.239 145.836C953.407 143.544 951.535 142.086 949.662 142.294C947.374 142.503 945.919 143.753 945.295 145.836C944.879 147.295 944.67 148.753 944.67 150.211C944.67 167.087 944.67 184.17 944.67 201.046C944.67 201.671 944.67 202.296 944.878 203.129C947.998 203.129 951.327 203.129 954.655 203.129ZM921.997 202.921C925.118 203.337 930.526 203.129 931.982 202.712C931.982 202.087 931.982 201.254 931.982 200.629C931.982 195.629 931.982 190.629 931.982 185.837C931.982 175.837 932.19 165.628 932.398 155.628C932.398 154.795 932.606 153.753 932.398 152.92C932.19 151.253 931.774 149.586 931.358 148.128C930.526 146.253 928.238 145.211 925.949 145.419C924.077 145.628 922.829 146.878 922.413 149.378C922.205 150.836 921.997 152.295 921.997 153.545C921.997 169.378 921.997 185.212 921.997 200.837C921.789 201.462 921.789 202.296 921.997 202.921ZM907.021 203.129C907.021 202.504 907.229 202.087 907.229 201.462C907.229 186.879 907.229 172.295 907.229 157.503C907.229 156.461 907.021 155.42 906.813 154.378C906.189 152.295 904.524 151.253 901.82 151.461C899.532 151.461 898.076 152.711 897.452 154.795C897.244 156.045 897.036 157.295 897.036 158.336C897.036 172.712 897.036 186.879 897.036 201.254C897.036 201.879 897.244 202.504 897.244 203.129C900.572 203.129 903.692 203.129 907.021 203.129ZM301.505 178.545C298.593 180.629 295.264 182.504 292.352 184.795C287.152 188.545 286.736 194.17 286.736 199.795C288.816 200.212 315.857 200.212 317.521 199.795C317.729 197.087 317.313 194.17 317.105 191.462C316.689 187.712 314.609 185.42 311.281 183.754C307.953 182.087 304.833 180.42 301.505 178.545ZM773.062 200.837C772.23 194.379 770.982 188.337 767.862 182.92C767.03 181.462 765.99 180.212 764.742 178.962C762.246 176.67 759.334 176.253 756.006 177.087C753.718 177.712 751.845 178.962 750.181 180.42C748.725 181.67 747.893 183.129 747.685 185.004C747.061 189.795 747.477 194.587 748.101 199.379C748.101 199.587 748.309 199.587 748.517 199.795C756.63 200.004 764.534 200.42 773.062 200.837ZM787.623 199.587C795.943 200.004 804.056 200.421 812.168 200.629C811.336 194.587 810.296 188.962 807.384 183.545C806.76 182.503 806.136 181.462 805.304 180.42C801.768 176.045 796.984 175.212 792.199 177.92C791.159 178.545 790.327 179.17 789.495 179.795C788.039 181.045 786.999 182.712 786.791 184.587C786.167 187.92 786.375 191.462 786.583 195.004C786.791 196.462 787.207 197.92 787.623 199.587ZM731.045 197.087C731.045 196.254 731.253 195.629 731.253 195.004C731.044 191.462 730.629 187.712 730.213 184.17C730.005 181.253 728.341 179.17 725.844 177.503C724.596 176.67 723.348 176.045 721.892 175.42C717.108 173.753 711.908 175.42 708.995 179.795C707.955 181.462 707.123 183.129 706.707 185.004C705.875 188.754 705.251 192.504 704.627 196.462C704.627 196.67 704.627 196.879 704.835 197.296C713.572 197.087 722.308 197.087 731.045 197.087ZM881.227 203.129C881.227 202.087 881.435 201.462 881.435 200.629C881.435 188.129 881.643 175.837 881.643 163.336C881.643 162.295 881.643 161.253 881.643 160.211C881.435 159.17 881.227 158.128 880.811 157.086C879.979 155.211 878.315 154.17 876.443 153.961C874.363 153.961 873.115 155.211 872.283 157.086C871.659 158.545 871.451 160.211 871.451 161.878C871.451 174.795 871.451 187.92 871.451 200.837C871.451 201.462 871.451 202.087 871.451 202.921C874.779 203.129 877.899 203.129 881.227 203.129ZM856.474 203.129C856.474 202.296 856.682 201.462 856.682 200.837C856.682 196.045 856.682 191.254 856.682 186.67C856.682 179.587 856.682 172.503 856.682 165.42C856.682 163.753 856.266 161.878 855.85 160.211C855.226 158.336 853.77 157.086 851.69 157.086C849.61 157.086 848.154 158.336 847.53 160.003C847.114 161.253 846.698 162.711 846.698 164.17C846.698 176.462 846.698 188.754 846.698 201.254C846.698 201.879 846.906 202.504 846.906 202.921C850.026 203.129 853.146 203.129 856.474 203.129ZM1060.53 200.004C1060.53 193.545 1060.74 187.295 1060.74 181.045C1060.74 180.212 1060.53 179.587 1059.7 179.17C1057.2 177.92 1054.92 176.462 1052.42 175.212C1051.59 174.795 1050.55 174.587 1049.51 174.378C1049.51 175.003 1049.3 175.42 1049.3 176.045C1049.3 180.003 1049.09 184.17 1049.09 188.129C1048.88 192.504 1051.17 196.046 1052.63 200.004C1055.33 200.004 1057.83 200.004 1060.53 200.004ZM828.601 202.921C829.225 203.129 829.433 203.129 829.641 203.129C830.057 203.129 830.681 203.129 831.097 203.129C833.385 202.921 834.009 202.296 834.009 200.212C834.009 198.337 834.009 196.462 834.009 194.795C834.009 188.337 834.009 182.087 834.009 175.628C834.009 172.712 834.425 170.003 834.217 167.087C834.217 165.003 833.593 162.711 833.177 160.628C832.761 159.17 831.929 157.92 830.265 157.295C830.057 157.503 829.849 157.92 829.641 158.128C828.601 159.795 828.601 161.67 828.601 163.336C828.601 175.837 828.601 188.337 828.601 200.629C828.601 201.671 828.601 202.087 828.601 202.921ZM636.4 202.921C639.728 203.546 639.936 203.337 639.936 200.421C639.936 200.212 639.936 200.212 639.936 200.004C639.936 195.42 639.936 190.629 639.936 186.045C639.936 177.295 640.144 168.753 640.144 160.003C640.144 156.878 639.728 153.753 639.312 150.628C639.312 149.795 639.104 148.961 638.272 148.128C637.024 150.003 636.816 151.878 636.816 153.753C636.608 159.795 636.192 165.837 636.192 171.878C636.192 181.462 636.4 191.045 636.4 200.629C636.4 201.254 636.4 202.087 636.4 202.921ZM1557.88 60.8345C1557.88 56.4594 1554.76 52.9177 1551.02 53.126C1546.86 53.3344 1542.91 56.251 1543.11 60.6261C1543.11 64.7929 1546.44 68.1263 1550.6 68.1263C1554.97 68.1263 1557.88 65.0012 1557.88 60.8345ZM925.117 131.461C925.117 123.127 925.741 115.211 925.117 107.294C924.909 105.835 924.493 104.377 924.285 103.127C920.957 102.294 920.125 103.335 919.917 106.252V106.46C919.917 114.169 919.917 121.877 919.917 129.586C919.917 130.211 919.917 130.836 920.125 131.461C921.789 131.461 923.245 131.461 925.117 131.461ZM886.22 136.461C886.22 136.044 886.428 135.836 886.428 135.628C886.428 128.336 886.428 120.836 886.428 113.544C886.428 112.086 886.012 110.627 885.804 109.169C885.596 108.335 885.18 108.127 884.348 107.919C882.475 107.71 881.643 108.335 881.227 110.21C881.227 110.835 881.227 111.252 881.227 111.877C881.227 119.377 881.227 126.877 881.227 134.378C881.227 135.003 881.227 135.628 881.435 136.461C882.891 136.461 884.556 136.461 886.22 136.461ZM899.116 134.586C899.116 133.961 899.116 133.544 899.116 133.128C899.324 127.502 899.324 121.669 899.324 116.044C899.324 113.752 899.116 111.669 898.908 109.377C898.7 108.127 898.284 107.085 898.076 106.044C894.54 105.627 893.916 106.252 893.916 109.377V109.585C893.916 117.086 893.916 124.794 893.916 132.294C893.916 132.919 893.916 133.544 893.916 134.378C895.788 134.586 897.452 134.586 899.116 134.586ZM862.506 112.085C859.386 111.252 858.346 112.71 858.346 115.419C858.346 123.127 858.346 130.836 858.346 138.544C858.346 139.169 858.346 139.794 858.554 140.419C860.219 140.419 861.882 140.628 863.339 140.419C863.547 140.003 863.547 140.003 863.547 139.794C863.547 132.294 863.755 124.586 863.547 117.086C863.547 115.419 863.547 113.544 862.506 112.085ZM938.846 129.586C938.846 129.169 939.054 128.753 939.054 128.544C939.054 121.461 939.054 114.169 939.054 107.085C939.054 105.002 938.638 103.127 938.43 101.044C937.598 101.044 937.182 101.044 936.766 101.044C935.102 101.044 934.686 101.46 934.27 102.919C934.062 103.544 934.062 104.377 934.062 105.21C934.062 112.711 934.062 120.211 934.062 127.503C934.062 128.128 934.062 128.753 934.27 129.586C935.518 129.586 937.182 129.586 938.846 129.586ZM874.155 138.544C874.155 138.128 874.363 137.919 874.363 137.711C874.363 130.419 874.571 123.127 874.571 115.836C874.571 113.96 874.363 111.877 873.323 110.21C870.411 109.377 869.371 110.419 869.163 113.544V113.752C869.163 121.461 869.163 129.169 869.163 136.878C869.163 137.503 869.163 138.128 869.371 138.753C870.411 138.753 871.451 138.753 872.283 138.753C873.115 138.544 873.739 138.544 874.155 138.544ZM911.181 105.21C908.061 104.377 907.021 105.627 907.021 108.335V108.544C907.021 116.252 907.021 123.752 907.021 131.461C907.021 132.086 907.021 132.711 907.229 133.544C908.893 133.544 910.557 133.753 912.221 133.336C912.221 126.252 912.429 119.377 912.221 112.294C912.221 110.002 912.221 107.502 911.181 105.21ZM949.662 125.627C949.662 125.211 949.87 125.002 949.87 124.794C949.87 117.919 949.87 111.044 949.87 103.96C949.87 102.919 949.455 101.877 949.247 101.044C949.039 100.002 947.999 100.002 947.167 100.002C946.334 100.002 945.503 100.21 945.295 101.252C945.087 102.502 944.67 103.96 944.462 105.21C943.63 111.877 944.462 118.544 944.67 125.211C944.67 125.419 944.878 125.627 944.878 125.836C946.542 125.627 947.998 125.627 949.662 125.627ZM520.747 183.337C515.339 185.837 510.97 188.962 510.554 195.629C511.802 195.837 512.842 196.045 514.091 195.837C516.587 195.837 519.291 195.837 521.787 195.629C525.115 195.212 526.155 193.129 524.907 190.004C523.867 187.295 522.203 185.42 520.747 183.337ZM955.695 99.377C955.695 107.502 955.695 115.419 955.695 123.544C956.735 123.544 957.567 123.544 958.815 123.544C958.607 115.211 959.231 107.085 958.399 98.7518C957.359 99.1685 956.527 99.1686 955.695 99.377ZM189.179 137.294C190.011 137.294 190.636 137.086 190.844 136.253C191.052 135.419 190.636 134.794 189.803 134.586C189.179 134.378 188.555 134.169 188.139 134.169C185.019 134.169 181.899 134.169 178.779 134.169C178.155 134.169 177.739 134.378 177.323 134.586C176.699 134.794 176.491 135.419 176.699 136.044C176.907 136.461 177.323 136.878 177.739 137.086C178.363 137.294 178.987 137.086 179.611 137.086C181.691 137.086 183.563 136.878 185.643 137.086C186.683 136.669 187.931 137.086 189.179 137.294ZM190.219 169.17C191.26 167.712 191.26 166.878 189.595 166.253C185.851 165.212 182.107 165.212 178.363 166.045C177.323 166.253 176.699 166.878 176.907 168.337C178.987 169.17 181.275 168.337 183.355 168.545C185.435 168.962 187.723 168.962 190.219 169.17ZM176.699 144.794C177.739 144.794 178.779 145.003 179.819 145.003C181.483 145.003 183.355 145.003 185.019 145.003C186.475 145.003 187.931 145.211 189.179 145.419C190.011 145.419 190.428 145.211 190.636 144.586C190.636 144.169 190.427 143.336 190.011 143.128C189.595 142.711 188.763 142.503 188.139 142.294C186.475 142.086 185.019 141.878 183.355 141.878C181.899 141.878 180.235 141.878 178.779 142.086C177.739 142.294 176.699 142.711 176.699 144.794ZM176.699 179.378C177.115 179.587 177.323 179.587 177.531 179.795C181.483 180.003 185.643 180.212 189.595 180.212C190.012 180.212 190.636 179.795 190.844 179.378C191.052 178.962 190.636 178.337 190.428 177.92C190.012 177.503 189.179 177.087 188.555 177.087C185.643 176.878 182.523 176.878 179.403 176.878C178.987 176.878 178.571 177.087 177.947 177.295C177.115 177.503 176.699 178.128 176.699 179.378ZM176.699 149.586C177.531 149.586 178.363 150.003 178.987 149.795C181.483 149.169 184.187 149.378 186.683 149.795C187.515 150.003 188.555 150.211 189.595 150.003C190.012 150.003 190.844 149.378 190.844 148.961C191.052 148.545 190.635 147.711 190.219 147.503C189.803 147.086 188.971 146.878 188.347 146.878C184.603 146.461 180.859 146.461 177.323 147.503C177.115 147.503 177.115 147.711 176.907 147.92C176.699 148.336 176.699 148.753 176.699 149.586ZM176.699 184.587C177.739 184.587 178.571 184.587 179.403 184.587C181.275 184.587 183.147 184.379 185.019 184.587C186.267 184.587 187.515 184.795 188.555 185.004C190.427 185.212 190.635 184.795 190.219 182.503C185.643 181.67 181.067 181.462 176.491 182.503C176.699 183.129 176.699 183.545 176.699 184.587ZM176.699 138.961C176.907 140.836 177.115 141.253 178.779 140.836C182.107 140.211 185.227 140.419 188.347 141.044C188.763 141.044 189.387 141.044 189.803 140.836C190.22 140.628 190.844 140.211 190.844 139.794C190.844 139.378 190.427 138.753 190.011 138.544C189.595 138.128 188.971 137.919 188.555 137.919C187.099 137.711 185.435 137.503 183.979 137.503C181.483 137.919 178.987 137.711 176.699 138.961ZM177.115 153.961C180.651 153.128 184.187 153.336 187.515 153.961C187.931 153.961 188.555 154.17 188.971 154.17C189.803 154.17 190.635 154.17 191.052 153.336C191.26 152.711 190.636 151.878 189.387 151.461C189.179 151.461 188.971 151.253 188.555 151.253C186.267 151.045 183.979 150.836 181.691 150.836C179.819 150.836 178.155 151.253 176.699 152.503C176.907 152.92 176.907 153.336 177.115 153.961ZM176.699 195.212C177.739 195.212 178.571 195.629 179.195 195.42C182.315 194.587 185.435 195.212 188.763 195.629C190.636 195.837 191.052 195.42 190.844 193.337C186.267 192.087 181.691 192.295 177.115 193.129C176.699 193.962 176.699 194.379 176.699 195.212ZM176.491 162.295C177.531 163.336 178.571 163.336 180.027 163.336C181.899 163.128 183.563 163.128 185.435 163.336C186.475 163.336 187.723 163.545 188.763 163.753C189.595 163.961 190.22 163.962 190.636 163.128C188.139 159.378 179.611 158.961 176.491 162.295ZM176.907 158.545C177.739 158.545 178.363 158.545 179.195 158.545C181.691 158.545 184.187 158.545 186.683 158.545C188.139 158.545 189.387 158.545 190.844 158.336C189.179 155.836 186.891 155.42 184.395 155.211C181.899 155.003 179.403 155.42 176.907 156.461C176.699 157.295 176.699 157.711 176.907 158.545ZM190.844 174.378C190.22 172.503 188.971 171.462 187.307 171.462C184.395 171.462 181.483 171.67 178.363 171.878C177.531 171.878 176.699 172.295 176.699 173.545C181.275 174.587 185.851 174.378 190.844 174.378ZM190.636 190.212C190.844 188.337 190.428 187.712 188.763 187.712C187.307 187.712 185.851 187.712 184.603 187.712C182.731 187.712 180.859 187.712 178.987 187.712C177.947 187.712 177.115 187.92 176.907 189.379C181.275 189.587 185.851 189.795 190.636 190.212ZM176.907 198.962C181.275 201.254 185.851 200.421 190.428 200.004C188.347 197.087 181.899 197.296 176.907 198.962ZM44.4047 126.877C39.2045 126.252 35.6683 126.461 34.0042 127.711C35.6683 128.752 43.5727 129.377 44.6128 128.336C44.6128 127.919 44.4047 127.502 44.4047 126.877ZM85.5907 138.544C84.5506 138.128 84.1346 137.711 83.5106 137.711C81.0145 137.711 78.3103 137.711 75.8141 137.711C74.7741 137.711 74.3582 138.544 74.7742 139.794C78.3103 139.586 81.8465 140.419 85.5907 138.544ZM43.9887 193.129C40.6606 191.879 37.1244 191.254 33.7962 193.129C37.3324 195.004 40.6606 194.587 43.9887 193.129ZM70.4059 155.003C68.9499 153.545 68.5338 153.128 67.2858 153.128C65.4137 153.128 63.7496 153.128 61.8775 153.128C61.2535 153.128 60.4215 153.336 59.5895 153.545C59.7975 154.17 59.7975 154.586 60.0055 154.795C63.3336 155.003 66.6617 155.003 70.4059 155.003ZM34.0042 165.003C34.0042 165.212 34.0042 165.42 34.0042 165.628C34.8363 165.837 35.6684 166.045 36.7084 166.253C38.5805 166.253 40.2445 166.253 42.1166 166.253C43.5727 166.253 43.7807 166.045 44.4047 164.17C40.8685 164.17 37.3324 163.337 34.0042 165.003ZM59.3814 176.045C62.5016 177.712 68.3258 177.712 70.1979 175.837C66.6617 174.587 63.3336 174.378 59.3814 176.045ZM44.1967 137.711C38.9965 137.086 35.4603 137.294 34.0042 138.753C37.3324 140.211 40.6606 140.003 44.1967 139.169C43.9887 138.753 44.1967 138.336 44.1967 137.711ZM33.7962 143.753C37.3324 145.003 40.6606 144.794 44.1967 143.753C41.7006 141.669 36.2924 141.669 33.7962 143.753ZM85.3826 165.837C84.3426 164.586 83.5106 164.17 82.4705 164.17C80.5984 164.17 78.7263 164.17 76.8542 164.17C76.2302 164.17 75.6062 164.378 74.7742 164.587C74.9822 165.212 75.1902 165.628 75.1902 166.253C78.5184 166.045 81.6385 166.045 85.3826 165.837ZM60.0055 165.42C63.3336 166.67 66.6617 166.67 70.4059 165.42C67.7018 163.545 62.7096 163.545 60.0055 165.42ZM59.7975 138.336C62.9176 140.419 68.3258 140.211 70.1979 138.128C66.6617 137.086 63.3336 137.294 59.7975 138.336ZM84.9666 176.67C84.9666 176.462 84.9666 176.462 85.1746 176.253C84.5506 175.837 84.1346 175.212 83.5106 175.212C80.5984 175.003 77.8943 174.795 74.9822 175.42L74.7742 175.628C74.7742 176.67 75.3981 176.878 76.4382 176.878C78.5183 176.878 80.8064 176.67 82.8865 176.67C83.5106 176.878 84.1345 176.67 84.9666 176.67ZM34.2122 153.961C34.2122 154.17 34.2122 154.378 34.2122 154.586C37.5404 154.795 40.6606 155.003 43.9887 155.42C44.1967 154.795 44.1967 154.378 44.4047 153.545C40.8685 153.336 37.5404 152.295 34.2122 153.961ZM34.0042 175.837C34.0042 176.045 34.0042 176.045 34.2122 176.253C37.5404 176.462 40.6606 176.67 43.9887 177.087C44.1967 176.462 44.1967 176.045 44.4047 175.628C42.9486 175.212 36.7084 174.795 35.4603 175.212C35.0443 175.212 34.4203 175.628 34.0042 175.837ZM75.1902 154.586C78.7264 155.836 83.0945 155.628 85.1746 154.378C83.5105 152.711 79.3504 152.711 75.1902 154.586ZM489.753 151.253C489.961 151.67 489.961 152.295 490.169 152.711C490.585 153.336 491.001 154.586 491.417 154.586C492.249 154.586 493.082 153.961 493.914 153.545C494.33 153.336 494.33 152.503 494.538 152.086C492.874 150.836 491.417 150.628 489.753 151.253ZM1549.15 142.503C1551.02 142.086 1551.23 141.878 1551.64 140.211C1550.6 141.044 1549.98 141.669 1549.15 142.503ZM1558.92 135.419C1557.67 135.628 1557.05 136.253 1556.43 137.503C1557.88 137.086 1558.71 136.669 1558.92 135.419Z" fill="#E6EAED"/>
    <path d="M1260.85 128.961C1260.01 127.086 1258.35 125.627 1256.89 124.169C1255.02 122.086 1253.36 119.586 1251.9 117.086C1250.86 115.419 1251.9 113.752 1252.52 111.877C1348.42 111.461 1444.31 111.044 1540.2 110.627C1540.62 113.336 1541.03 115.836 1539.16 117.919C1538.54 118.752 1538.12 119.586 1537.5 120.627C1536.87 121.877 1536.04 123.127 1535 123.961C1534.17 124.586 1533.55 125.836 1532.92 126.669C1532.3 127.503 1531.67 127.919 1530.63 127.919C1527.72 127.919 1524.6 127.919 1521.69 127.919C1487.16 128.127 1452.84 128.127 1418.31 128.336C1382.95 128.544 1347.59 128.544 1312.22 128.753C1296 128.753 1279.77 128.961 1263.55 128.961C1262.51 128.961 1261.68 128.961 1260.85 128.961Z" fill="#E6EAED"/>
    <path d="M1340.1 107.919C1341.76 106.669 1343.43 105.419 1345.3 104.377C1350.91 101.044 1357.15 98.9603 1363.39 97.0852C1373.59 94.1685 1383.99 92.0852 1394.8 91.8768C1405.62 91.6685 1416.23 93.1269 1426.42 95.8353C1434.33 98.127 1441.81 101.252 1449.09 105.002C1450.34 105.627 1451.59 106.46 1452.84 107.502C1450.97 108.127 1342.18 108.752 1340.1 107.919Z" fill="#E6EAED"/>
    <path d="M1548.73 109.169C1549.35 108.127 1550.19 107.294 1551.85 107.085C1550.81 108.335 1549.98 108.96 1548.73 109.169Z" fill="#E6EAED"/>
    <path d="M1558.3 107.294C1557.67 108.335 1556.84 109.169 1555.18 109.377C1556.22 108.127 1557.26 107.502 1558.3 107.294Z" fill="#E6EAED"/>
    <path d="M1558.3 112.294C1557.67 113.544 1556.63 113.96 1555.59 114.377C1556.22 113.127 1557.26 112.502 1558.3 112.294Z" fill="#E6EAED"/>
    <path d="M1551.64 112.502C1550.81 113.127 1549.77 113.752 1548.94 114.377C1548.94 114.169 1548.73 114.169 1548.73 113.961C1549.35 112.919 1550.39 112.502 1551.43 111.877C1551.43 112.294 1551.64 112.502 1551.64 112.502Z" fill="#E6EAED"/>
    <path d="M1544.57 122.711C1543.74 123.336 1542.7 123.961 1541.87 124.586C1542.07 122.919 1543.11 122.502 1544.57 122.711Z" fill="#E6EAED"/>
    <path d="M1555.39 104.377C1556.22 103.127 1557.26 102.502 1558.92 102.085C1557.88 103.335 1557.05 104.169 1555.39 104.377Z" fill="#E6EAED"/>
    <path d="M1548.52 118.961C1549.35 118.336 1550.39 117.711 1551.23 117.086C1551.23 117.294 1551.43 117.294 1551.43 117.502C1550.81 118.336 1549.98 118.961 1548.52 118.961Z" fill="#E6EAED"/>
    <path d="M1558.51 97.2936C1557.88 98.3353 1557.05 99.1686 1555.39 99.377C1556.22 98.1269 1557.26 97.5019 1558.51 97.2936Z" fill="#E6EAED"/>
    <path d="M1551.85 102.294C1551.02 103.335 1550.19 104.169 1548.73 104.377C1549.35 103.127 1550.19 102.502 1551.85 102.294Z" fill="#E6EAED"/>
    <path d="M1545.61 116.877C1545.4 115.211 1546.44 115.419 1547.27 115.002C1547.27 115.211 1547.48 115.211 1547.48 115.419C1546.86 115.836 1546.23 116.461 1545.61 116.877Z" fill="#E6EAED"/>
    <path d="M1545.4 106.46C1546.03 105.21 1546.65 105.002 1547.9 105.21C1547.48 106.46 1546.65 106.252 1545.4 106.46Z" fill="#E6EAED"/>
    <path d="M1545.61 120.836C1546.23 120.419 1546.86 120.211 1547.69 119.794C1547.48 121.044 1547.48 121.044 1545.82 121.252C1545.82 121.044 1545.61 121.044 1545.61 120.836Z" fill="#E6EAED"/>
    <path d="M1554.55 105.627C1553.93 105.835 1553.31 106.044 1552.47 106.46C1552.89 105.21 1553.72 105.002 1554.35 105.002C1554.35 105.419 1554.55 105.627 1554.55 105.627Z" fill="#E6EAED"/>
    <path d="M1554.55 110.627C1553.93 110.835 1553.31 111.252 1552.68 111.669C1553.1 110.419 1553.1 110.419 1554.35 110.21C1554.55 110.419 1554.55 110.419 1554.55 110.627Z" fill="#E6EAED"/>
    <path d="M1543.53 107.919C1543.95 107.71 1544.57 107.294 1545.19 107.085C1545.19 108.544 1544.15 108.127 1543.53 107.919Z" fill="#E6EAED"/>
    <path d="M1552.47 116.252C1552.68 115.211 1553.72 115.419 1554.35 115.002C1554.14 116.252 1554.14 116.252 1552.47 116.252Z" fill="#E6EAED"/>
    <path d="M1545.19 112.085C1545.4 110.419 1546.44 110.419 1547.07 110.002C1547.07 110.21 1547.27 110.21 1547.27 110.419C1546.86 110.835 1546.23 111.252 1545.19 112.085Z" fill="#E6EAED"/>
    <path d="M1554.55 100.835C1553.93 101.044 1553.31 101.252 1552.68 101.46C1552.68 101.252 1552.47 101.044 1552.47 100.835C1553.1 100.627 1553.72 100.419 1554.14 100.002C1554.35 100.419 1554.35 100.627 1554.55 100.835Z" fill="#E6EAED"/>
</svg>