<svg width="629" height="288" viewBox="0 0 629 288" fill="none" xmlns="http://www.w3.org/2000/svg">
<path d="M337.677 0C342.97 1.83564 436.259 105.475 446.763 117.96C453.399 109.722 461.197 101.407 469.069 94.3485C492.331 115.811 513.066 141.298 534.621 164.468C566.896 199.162 600.826 233.193 629 271.418L537.056 192.741C527.012 183.994 516.471 175.706 506.674 166.693C497.938 158.66 490.315 149.435 481.676 141.312C479.528 139.293 477.854 137.034 474.817 137.158C474.99 140.319 479.035 141.001 479.959 144.301C478.826 144.516 477.696 144.747 476.57 144.993C477.59 146.168 478.603 147.342 479.672 148.475L480.31 149.139C478.797 150.416 479.338 149.647 478.64 151.417L480.642 154.919L479.998 155.963L477.293 155.978L476.591 157.18C476.793 161.058 478.075 163.053 480.164 166.296L480.955 167.502L479.421 165.812C481.032 168.784 481.006 170.7 480.853 174.04L479.724 174.43L471.374 169.758C474.474 173.715 477.751 178.425 479.679 183.076L474.648 182.627L473.781 183.583C479.933 190.649 485.908 197.699 491.601 205.147C483.743 202.694 475.903 200.186 468.081 197.622C475.16 207.847 484.74 216.891 493.075 226.118C506.529 241.014 519.134 255.785 530.9 272.054C521.85 264.533 452.564 208.015 451.892 205.05L455.423 203.238C454.052 202.182 452.643 201.2 451.219 200.216L451.202 198.195C452.647 197.164 453.442 196.53 454.548 195.099C454.273 194.939 453.997 194.776 453.72 194.62C450.7 192.919 446.794 191.147 445.265 187.898C447.37 185.751 449.672 186.379 452.311 184.941C447.873 178.448 440.244 173.103 434.585 167.667C430.521 163.763 426.885 159.252 423.273 154.931C424.898 146.256 420.549 146.292 420.572 143.958C420.591 142.042 422.332 142.703 421.672 139.868C419.567 139.099 417.625 138.58 416.075 136.865C418.665 135.475 421.391 137.331 423.566 135.41C420.53 132.39 415.728 128.559 415.311 124.139C419.368 121.916 429.409 124.054 434.126 124.501C420.505 107.287 404.309 91.8258 389.061 76.0491C375.892 62.4217 362.35 45.7398 346.634 35.1922C349.695 40.0698 353.116 44.7544 356.404 49.4834C351.148 50.3475 346.155 51.5969 341.029 53.0154C344.547 54.8769 348.079 56.5017 350.966 59.2936C349.8 60.9933 350.373 60.3619 348.797 61.8017C348.421 62.1459 348.035 62.4788 347.652 62.817C347.55 69.6595 355.56 67.3948 358.243 72.9031L356.344 75.6897C358.319 78.6043 366.708 80.8763 370.359 82.3744C358.75 81.9546 350.593 81.0262 339.083 83.7597C343.676 86.433 348.076 89.5359 352.518 92.4578C347.814 92.8869 341.01 92.7337 337.076 95.5157L336.813 97.2877L338.439 99.0072C342.003 99.8349 345.378 99.8912 349.026 99.9516C348.227 101.308 348.719 100.729 347.185 101.899C346.782 102.206 346.368 102.499 345.96 102.798L346.478 104.292C351.785 107.997 359.362 109.701 365.524 111.745C361.933 112.702 356.561 113.499 354.408 116.736C355.329 118.403 355.723 119.137 355.969 121.072C353.552 123.639 349.79 123.469 346.364 124.169L346.354 126.123C349.221 129.047 351.613 128.385 355.135 130.142L352.906 131.968L352.834 133.414C361.772 140.503 374.208 145.164 384.114 151.158C378.988 152.149 373.715 152.611 368.533 153.241C374.491 156.62 388.188 160.827 391.822 166.239C389.744 166.015 388.206 165.648 386.19 166.356C389.238 169.612 394.245 171.599 398.168 173.802C400.931 175.357 405.403 177.334 406.334 180.647L403.119 181.543L402.592 182.516L411.867 192.419C405.952 190.816 399.979 189.391 394.038 187.883L406.305 205.514C406.235 205.792 406.215 206.087 406.097 206.348C405.938 206.692 405.688 206.987 405.484 207.305C408.72 215.922 413.249 219.345 418.742 226.316L416.684 226.741L416.788 227.84L423.464 232.723L423.481 233.847C422.096 233.676 421.25 233.651 419.832 233.833C431.255 246.963 442.255 260.184 452.862 273.997C441.487 264.836 350.808 181.619 350.299 179.919C353.008 180.407 355.66 180.807 358.399 181.054C356.75 175.433 344.756 175.144 340.187 171.554C339.553 168.478 342.746 170.681 344.294 168.208C337.514 161.7 328.665 157.343 321.523 151.017L322.449 150.629C324.107 151.188 325.279 151.437 327.033 151.392L326.467 149.641C322.862 147.284 315.086 144.91 313.61 140.799C315.294 140.279 316.212 140.477 317.122 138.893C314.276 135.2 309.298 133.685 305.997 130.216C308.052 129.947 307.394 129.941 309.183 129.995C309.552 130.007 309.92 130.03 310.289 130.047C310.08 129.509 309.944 128.936 309.661 128.433C307.239 124.154 301.866 119.711 297.104 118.533C297.298 119.27 297.553 120.13 297.603 120.882C297.774 123.428 297.407 124.071 296.012 126.037C293.797 126.53 292.181 127.128 290.196 128.226L290.19 129.466L295.304 132.132L295.318 133.41C291.613 136.393 285.674 137.673 281.181 139.212C283.484 139.746 285.941 140.202 288.157 141.034C290.598 141.949 293.105 142.666 294.313 145.017C289.789 147.613 280.34 147.815 274.902 148.772C277.425 149.544 280.718 150.137 282.61 152.058C283.589 153.051 283.26 153.785 283.26 155.056C279.228 159.484 273.241 159.723 267.675 160.214C277.834 165.564 287.078 172.464 297.523 177.28C291.436 177.268 285.569 176.996 279.523 176.295C312.747 210.035 351.087 238.62 383.913 272.677C359.645 261.298 336.069 248.412 312.328 235.98L247.902 202.897C215.656 215.387 183.835 229.143 152.044 242.751C119.275 256.78 86.7116 270.33 55.671 288C82.0523 261.633 107.993 234.416 135.515 209.244C165.108 182.176 197.502 157.365 222.96 126.04C210.13 114.586 197.289 103.843 183.536 93.4877C184.452 96.2929 185.713 99.1359 186.363 102.005C186.881 104.294 186.555 105.281 185.23 107.107C183.969 107.37 182.717 107.651 181.461 107.929C177.873 108.719 175.33 109.623 173.147 112.779C169.601 117.905 173.052 122.656 174.045 128.176C170.9 132.504 164.085 135.576 160.022 139.695C159.698 140.025 159.38 140.36 159.06 140.692C161.506 142.61 163.782 143.952 164.644 146.983C158.154 159.382 149.009 173.462 139.029 183.318C138.402 179.683 156.186 156.065 159.396 151.267C152.384 151.848 146.04 151.449 139.089 150.587C138.694 151.954 138.258 153.309 137.781 154.651C136.229 158.935 131.222 168.737 126.844 170.75C125.192 163.042 130.926 159.553 133.708 153.639L131.07 154.067C123.947 160.75 118.319 171.241 112.584 179.332C115.868 177.092 119.087 175.058 122.646 173.28L123.045 173.654C119.218 178.096 113.143 181.706 108.522 185.414C90.3982 199.961 71.4012 213.374 52.701 227.173C34.6987 240.456 17.6533 254.802 0 268.519C19.4486 242.263 42.3029 217.73 63.4613 192.793C100.473 149.172 137.406 104.986 176.305 63.0458C194.997 80.2165 213.251 97.8414 231.069 115.92C267.483 78.1633 300.63 37.0815 337.677 0Z" fill="url(#paint0_linear_543_4534)" fill-opacity="0.04"/>
<defs>
<linearGradient id="paint0_linear_543_4534" x1="314.5" y1="0" x2="314.5" y2="288" gradientUnits="userSpaceOnUse">
<stop offset="0.109895" stop-color="white"/>
<stop offset="0.760719" stop-color="white" stop-opacity="0"/>
</linearGradient>
</defs>
</svg>
