<svg viewBox="0 0 787 321" fill="none" xmlns="http://www.w3.org/2000/svg"><g clip-path="url(#clip0_9_2)"><path d="M237.6 195.11C240.75 182.2 242.34 168.85 242.34 155.09C242.34 130.01 237.77 111.39 228.57 91.03C212.73 84.21 192.86 79.93 175.79 77.46C179.7 67.08 181.16 55.21 177.06 44.86L176.53 43.52C177.63 39.09 178.86 34.52 180.26 29.84C183.77 30.61 186.72 31.65 189.04 32.62C187.77 29.38 185.87 25.31 183.06 20.92C184.19 17.51 185.36 14.2 186.55 11C184.17 11.44 181.07 12.2 177.63 13.59C173.06 8.23 168.42 4.48 164.86 2C166.58 6.76 168.24 12.01 169.72 17.72C163.23 21.97 159.2 26.96 157.04 30.09C160.62 29.22 165.87 28.34 172.2 28.71C173.14 33.6 173.82 38.25 174.3 42.63L173.56 44.97C166.98 65.86 140.27 66.45 115.47 75.01C111.77 75.27 108.05 75.61 104.33 76.01C106.4 65.2 98.07 55.32 87.24 55.32C73.94 55.32 65.59 69.7 72.06 81.22C61.29 83.58 50.29 86.66 40.16 91.02C30.94 111.41 26.39 130.04 26.39 155.08C26.39 177.4 30.56 198.67 38.82 218.66C32.93 217.68 26.21 217.11 18.34 217.11C10.7 217.11 7.71 218.31 2 219.9C15.74 224.05 21.3 225.52 42.04 239.16C45.83 241.66 49.57 244.11 53.41 246.35C73.66 277.57 102.64 301.42 134.37 320.3C175.53 295.81 211.49 263.1 229.83 218.85C253.59 200.82 266.94 199 283.5 195.43C268.24 193.66 256 191.77 237.6 195.11Z" fill="#94193F" stroke="#94193F" stroke-miterlimit="10"/><path d="M257.98 195.14C249.93 195.14 242.33 196 235.1 197.51C238.6 184.21 240.48 170.08 240.48 155.09C240.48 129.85 235.64 111.18 227.17 92.44C213.39 86.51 193.57 81.76 173.08 78.96C177.72 68.52 178.81 57.87 176.49 49.08C176.98 54.78 175.82 62.21 173.96 67.69C165.14 93.69 139.73 101.47 120.8 120.41C110.54 130.67 103.95 145.45 103.95 171.76C103.95 191.61 112.92 213.97 124.75 230.46C124.59 230.57 124.42 230.68 124.28 230.79C89.99 203.25 68.35 132.52 99.87 100.99C117.8 83.05 147.25 81.6 164.45 65.47C171.37 58.98 172.63 55.39 174.68 47.4C166.78 67.67 139.81 68.54 115.89 76.88C111.23 77.21 106.51 77.65 101.8 78.2C102.44 76.5 102.79 74.67 102.79 72.75C102.79 64.17 95.81 57.2 87.24 57.2C78.67 57.2 71.69 64.18 71.69 72.75C71.69 76.44 72.98 79.82 75.13 82.49C62.34 85.15 50.63 88.54 41.54 92.45C33.08 111.18 28.24 129.85 28.24 155.09C28.24 179.31 33.16 201.28 41.87 221.14C35.29 219.79 27.62 218.98 18.34 218.98C12.24 218.98 8.64001 219.99 8.64001 219.99C28.22 225.9 40.88 236.99 54.73 245C73.97 274.83 102.21 299.03 134.37 318.17C175.83 293.5 210.77 260.4 228.33 217.7C241.01 208.05 254.65 199.78 272.22 195.99C267.31 195.41 262.57 195.14 257.98 195.14ZM87.25 62.54C92.88 62.54 97.45 67.1 97.45 72.74C97.45 78.37 92.89 82.93 87.25 82.93C81.62 82.93 77.06 78.37 77.06 72.74C77.05 67.1 81.61 62.54 87.25 62.54ZM225.41 199.98C171.66 216.17 138.13 267.05 85.9 261.49C93.01 265.93 105.71 269.12 121.15 269.12C165.46 269.12 189.55 249.53 212.68 230.33C195.47 261.65 167.81 287.41 134.36 308.05C108.97 292.37 86.9 273.75 70.22 251.98C75.35 253.55 80.9 254.48 87.18 254.48C106.33 254.48 119.47 246.42 119.47 246.42C84.92 247.83 76.62 232.48 52.82 224.14C42.62 203.49 36.89 180.51 36.89 155.08C36.89 134.3 40.25 117.36 48.06 99.11C61.49 93.87 80.53 89.57 100.13 87.09C97.2 89.05 94.43 91.26 91.88 93.81C61.44 124.25 70.54 203.28 131.59 238.24L131.69 237.98C132.91 234.82 145.81 203.49 176.81 203.49C180.56 203.49 184.57 203.95 188.87 204.97L207.86 146.44C207.86 146.44 197.06 145.43 191.78 145.43C190.97 145.43 190.29 145.45 189.79 145.51L176.88 192.66C176.88 192.66 176.46 192.63 175.7 192.63C169.76 192.63 143.07 194.61 133.51 229.41C133.37 229.34 133.22 229.28 133.07 229.23C136.25 215.4 145.94 190.4 174.56 189.31L191.45 123.85C191.45 123.85 178.55 125.19 172.57 127.09L162.08 177.45C162.08 177.45 132.43 184.86 131.4 228.86C131.25 228.84 131.1 228.83 130.96 228.82C129.8 183.85 158.3 174.63 158.96 174.43L172.12 100.52C126.85 117.98 114.61 148.44 114.61 176.28C114.61 198.07 122.1 218.24 127.14 229.35C126.98 229.4 126.81 229.46 126.65 229.52C118.3 213.43 110.72 191.72 110.72 177.03C110.72 145.23 120.97 124.2 145.29 109.55C155.57 103.35 163.35 95.5 168.71 87.12C188.28 89.6 207.27 93.9 220.68 99.13C228.49 117.37 231.85 134.31 231.85 155.1C231.84 171.01 229.59 185.96 225.41 199.98Z" fill="white"/><path d="M311.65 143.49H361.65V251.04H400.86V143.49H450.67V112.4H311.65V143.49Z" fill="white" stroke="#140F23" stroke-miterlimit="10"/><path d="M541.17 237.37L505.23 177.48L505.12 251.04H469.07V112.4H505.32L549.21 192.5L593.1 112.4H629.35V251.04H593.3L593.2 177.48L557.25 237.37H541.17Z" fill="white" stroke="#140F23" stroke-miterlimit="10"/><path d="M746.11 217.17C740.76 219.94 734.79 221.33 728.19 221.33C722.51 221.33 717.3 220.41 712.54 218.56C707.79 216.71 703.73 214.04 700.36 210.54C696.99 207.04 694.35 202.85 692.44 197.96C690.52 193.08 689.57 187.66 689.57 181.72C689.57 175.78 690.53 170.36 692.44 165.48C694.35 160.6 697 156.4 700.36 152.9C703.73 149.4 707.79 146.73 712.54 144.88C717.29 143.03 722.51 142.11 728.19 142.11C734.79 142.11 740.77 143.49 746.11 146.27C751.46 149.04 756.38 153.07 760.87 158.35L785.83 135.77C779.09 127.32 770.68 120.85 760.58 116.36C750.48 111.87 739.02 109.63 726.21 109.63C715.25 109.63 705.12 111.38 695.81 114.88C686.5 118.38 678.45 123.37 671.64 129.83C664.84 136.3 659.53 143.93 655.7 152.71C651.87 161.49 649.96 171.16 649.96 181.73C649.96 192.3 651.87 201.97 655.7 210.75C659.53 219.53 664.84 227.16 671.64 233.63C678.44 240.1 686.5 245.09 695.81 248.58C705.12 252.08 715.25 253.83 726.21 253.83C739.02 253.83 750.47 251.55 760.58 247C770.68 242.44 779.1 236.01 785.83 227.69L760.87 205.11C756.37 210.37 751.46 214.4 746.11 217.17Z" fill="white" stroke="#140F23" stroke-miterlimit="10"/></g><defs><clipPath id="clip0_9_2"><rect width="787" height="321" fill="white"/></clipPath></defs></svg>