<svg width="1080" height="1080" viewBox="0 0 1080 1080" fill="none" xmlns="http://www.w3.org/2000/svg">
<g clip-path="url(#clip0_1924_5624)">
<rect width="1080" height="1080" rx="540" fill="#FE014D"/>
<g filter="url(#filter0_d_1924_5624)">
<path d="M573.078 230.798L424.011 528.913C420.567 535.814 410.716 535.814 407.265 528.913L382.563 479.514C379.112 472.606 369.261 472.606 365.81 479.514L215.151 780.833C214.438 782.26 214.102 783.845 214.174 785.439C214.245 787.033 214.723 788.581 215.561 789.938C216.4 791.296 217.571 792.416 218.964 793.194C220.357 793.971 221.925 794.38 223.52 794.381H856.472C858.068 794.381 859.637 793.973 861.031 793.196C862.425 792.419 863.597 791.299 864.436 789.941C865.275 788.584 865.753 787.035 865.826 785.441C865.898 783.846 865.561 782.26 864.848 780.833L589.831 230.798C586.38 223.89 576.522 223.89 573.078 230.798ZM581.448 306.731L661.916 467.653L626.353 538.771C625.318 540.842 623.725 542.585 621.755 543.802C619.785 545.02 617.515 545.665 615.199 545.665H589.165C584.432 545.665 580.117 548.341 578.004 552.559L551.154 606.259C546.558 615.452 533.441 615.452 528.845 606.259L480.263 509.101L581.448 306.731Z" fill="url(#paint0_linear_1924_5624)" shape-rendering="crispEdges"/>
<path d="M575.315 231.913C577.838 226.853 585.063 226.849 587.594 231.915L587.595 231.916L862.611 781.949V781.95C863.134 782.997 863.381 784.159 863.328 785.328C863.275 786.496 862.925 787.632 862.31 788.627C861.771 789.497 861.046 790.234 860.188 790.787L859.813 791.012C858.792 791.582 857.641 791.882 856.472 791.882H223.522C222.353 791.881 221.204 791.58 220.183 791.011C219.289 790.512 218.52 789.821 217.93 788.989L217.688 788.625L217.471 788.245C216.991 787.345 216.717 786.348 216.671 785.326C216.618 784.158 216.865 782.996 217.388 781.95L217.387 781.949L368.047 480.633V480.632C370.576 475.567 377.797 475.567 380.326 480.632V480.633L405.029 530.031C409.4 538.772 421.881 538.777 426.247 530.031L575.314 231.916L575.315 231.913ZM579.212 305.613L478.026 507.983L477.468 509.101L478.026 510.22L526.609 607.378C532.127 618.412 547.872 618.412 553.39 607.378L580.239 553.677C581.93 550.303 585.381 548.165 589.165 548.165H615.199C617.979 548.165 620.704 547.39 623.069 545.928C625.434 544.467 627.346 542.375 628.589 539.888L664.151 468.771L664.711 467.653L664.151 466.535L583.684 305.613L581.447 301.141L579.212 305.613Z" stroke="url(#paint1_linear_1924_5624)" stroke-width="5" shape-rendering="crispEdges"/>
</g>
</g>
<defs>
<filter id="filter0_d_1924_5624" x="-35.8359" y="105.617" width="1151.67" height="1068.76" filterUnits="userSpaceOnUse" color-interpolation-filters="sRGB">
<feFlood flood-opacity="0" result="BackgroundImageFix"/>
<feColorMatrix in="SourceAlpha" type="matrix" values="0 0 0 0 0 0 0 0 0 0 0 0 0 0 0 0 0 0 127 0" result="hardAlpha"/>
<feOffset dy="130"/>
<feGaussianBlur stdDeviation="125"/>
<feComposite in2="hardAlpha" operator="out"/>
<feColorMatrix type="matrix" values="0 0 0 0 0 0 0 0 0 0 0 0 0 0 0 0 0 0 0.3 0"/>
<feBlend mode="normal" in2="BackgroundImageFix" result="effect1_dropShadow_1924_5624"/>
<feBlend mode="normal" in="SourceGraphic" in2="effect1_dropShadow_1924_5624" result="shape"/>
</filter>
<linearGradient id="paint0_linear_1924_5624" x1="540" y1="461.5" x2="540" y2="794.381" gradientUnits="userSpaceOnUse">
<stop stop-color="white"/>
<stop offset="1" stop-color="white" stop-opacity="0.8"/>
</linearGradient>
<linearGradient id="paint1_linear_1924_5624" x1="540" y1="225.617" x2="540" y2="794.381" gradientUnits="userSpaceOnUse">
<stop stop-color="white" stop-opacity="0.2"/>
<stop offset="1" stop-color="white" stop-opacity="0.6"/>
</linearGradient>
<clipPath id="clip0_1924_5624">
<rect width="1080" height="1080" rx="540" fill="white"/>
</clipPath>
</defs>
</svg>
