<svg xmlns="http://www.w3.org/2000/svg" width="955" height="437" viewBox="0 0 955 437" fill="none">
  <path d="M512.69 0C520.725 2.78533 662.364 160.044 678.312 178.988C688.389 166.488 700.227 153.87 712.18 143.161C747.498 175.727 778.98 214.4 811.705 249.558C860.708 302.2 912.224 353.839 955 411.838L815.402 292.458C800.153 279.186 784.15 266.61 769.274 252.934C756.011 240.744 744.437 226.747 731.32 214.421C728.06 211.358 725.518 207.93 720.907 208.118C721.17 212.915 727.311 213.949 728.713 218.957C726.993 219.283 725.278 219.634 723.568 220.007C725.117 221.79 726.654 223.571 728.278 225.29L729.247 226.298C726.95 228.235 727.771 227.068 726.711 229.753L729.751 235.069L728.773 236.651L724.667 236.675L723.6 238.499C723.906 244.384 725.853 247.41 729.025 252.331L730.227 254.161L727.897 251.596C730.342 256.106 730.304 259.014 730.071 264.081L728.356 264.674L715.679 257.584C720.386 263.589 725.361 270.735 728.289 277.792L720.651 277.111L719.334 278.561C728.674 289.283 737.746 299.982 746.389 311.282C734.459 307.56 722.556 303.754 710.679 299.864C721.427 315.379 735.972 329.103 748.627 343.103C769.054 365.705 788.192 388.119 806.057 412.803C792.316 401.391 687.12 315.634 686.1 311.135L691.461 308.385C689.379 306.784 687.24 305.292 685.078 303.8L685.052 300.734C687.246 299.168 688.454 298.207 690.133 296.035C689.715 295.793 689.297 295.546 688.875 295.309C684.289 292.727 678.359 290.039 676.038 285.109C679.234 281.852 682.73 282.804 686.737 280.622C679.997 270.77 668.415 262.659 659.823 254.411C653.652 248.488 648.132 241.643 642.648 235.087C645.116 221.924 638.512 221.977 638.547 218.436C638.577 215.529 641.219 216.531 640.218 212.23C637.021 211.063 634.073 210.276 631.72 207.673C635.652 205.565 639.79 208.381 643.093 205.465C638.483 200.884 631.193 195.071 630.559 188.364C636.719 184.991 651.965 188.234 659.126 188.912C638.445 162.793 613.855 139.333 590.705 115.394C570.71 94.7163 550.15 69.4038 526.288 53.3992C530.937 60.8003 536.13 67.9085 541.123 75.0842C533.143 76.3953 525.561 78.2911 517.779 80.4435C523.119 83.2681 528.482 85.7334 532.866 89.9698C531.095 92.5488 531.965 91.5909 529.573 93.7755C529.002 94.2977 528.416 94.8029 527.835 95.3161C527.679 105.699 539.841 102.262 543.915 110.62L541.031 114.849C544.029 119.271 556.766 122.719 562.31 124.992C544.684 124.355 532.3 122.946 514.825 127.094C521.797 131.15 528.477 135.858 535.223 140.292C528.08 140.943 517.749 140.711 511.776 144.932L511.378 147.62L513.846 150.23C519.257 151.486 524.382 151.571 529.92 151.663C528.706 153.72 529.455 152.842 527.125 154.617C526.513 155.083 525.885 155.528 525.266 155.982L526.052 158.249C534.109 163.871 545.614 166.456 554.969 169.557C549.517 171.01 541.361 172.22 538.091 177.13C539.491 179.66 540.088 180.774 540.462 183.71C536.792 187.604 531.08 187.348 525.878 188.409L525.863 191.375C530.217 195.811 533.848 194.806 539.195 197.472L535.811 200.243L535.702 202.437C549.272 213.193 568.154 220.266 583.194 229.361C575.412 230.864 567.405 231.566 559.538 232.522C568.584 237.649 589.38 244.033 594.897 252.244C591.742 251.905 589.406 251.348 586.346 252.422C590.974 257.362 598.576 260.378 604.532 263.721C608.726 266.08 615.516 269.08 616.93 274.106L612.049 275.466L611.248 276.943L625.331 291.97C616.35 289.538 607.281 287.374 598.261 285.086L616.886 311.839C616.78 312.261 616.75 312.709 616.571 313.104C616.33 313.626 615.95 314.074 615.64 314.557C620.553 327.631 627.429 332.826 635.77 343.404L632.644 344.048L632.802 345.716L642.938 353.124L642.964 354.831C640.861 354.571 639.577 354.533 637.424 354.81C654.767 374.733 671.468 394.793 687.572 415.752C670.302 401.852 532.626 275.582 531.854 273.003C535.966 273.742 539.992 274.35 544.151 274.724C541.647 266.195 523.437 265.757 516.501 260.309C515.537 255.642 520.385 258.985 522.736 255.232C512.442 245.357 499.006 238.746 488.164 229.148L489.568 228.558C492.087 229.407 493.865 229.785 496.529 229.716L495.669 227.06C490.197 223.483 478.39 219.881 476.149 213.643C478.706 212.853 480.099 213.154 481.481 210.751C477.159 205.147 469.601 202.848 464.59 197.585C467.71 197.176 466.711 197.167 469.427 197.249C469.987 197.267 470.547 197.303 471.107 197.329C470.789 196.512 470.583 195.642 470.152 194.879C466.477 188.387 458.317 181.645 451.088 179.858C451.383 180.975 451.769 182.281 451.845 183.422C452.105 187.284 451.548 188.26 449.43 191.243C446.066 191.992 443.613 192.899 440.6 194.566L440.591 196.446L448.356 200.491L448.377 202.432C442.75 206.957 433.735 208.9 426.912 211.234C430.409 212.045 434.14 212.738 437.504 213.999C441.21 215.388 445.016 216.476 446.851 220.043C439.981 223.982 425.636 224.288 417.379 225.742C421.209 226.912 426.21 227.811 429.083 230.727C430.568 232.233 430.069 233.348 430.069 235.276C423.948 241.995 414.858 242.357 406.407 243.103C421.83 251.221 435.866 261.69 451.725 268.998C442.482 268.98 433.574 268.567 424.395 267.503C474.839 318.699 533.049 362.073 582.889 413.749C546.043 396.483 510.248 376.931 474.202 358.067L376.385 307.868C327.427 326.82 279.113 347.692 230.846 368.341C181.094 389.628 131.653 410.188 84.5243 437C124.579 396.992 163.963 355.693 205.75 317.498C250.681 276.427 299.864 238.78 338.517 191.249C319.037 173.868 299.54 157.567 278.659 141.855C280.05 146.111 281.964 150.425 282.952 154.779C283.738 158.252 283.243 159.749 281.231 162.52C279.317 162.919 277.417 163.345 275.508 163.767C270.062 164.966 266.2 166.338 262.886 171.126C257.502 178.905 262.742 186.114 264.25 194.489C259.475 201.057 249.127 205.718 242.959 211.968C242.467 212.469 241.983 212.976 241.498 213.48C245.212 216.39 248.668 218.427 249.976 223.026C240.122 241.84 226.237 263.205 211.085 278.16C210.134 272.644 237.135 236.807 242.008 229.526C231.362 230.408 221.73 229.803 211.176 228.495C210.577 230.57 209.915 232.625 209.19 234.662C206.834 241.163 199.232 256.035 192.585 259.089C190.077 247.394 198.783 242.099 203.007 233.125L199.001 233.775C188.186 243.916 179.642 259.835 170.934 272.111C175.921 268.712 180.808 265.626 186.211 262.928L186.817 263.496C181.007 270.235 171.782 275.714 164.767 281.341C137.25 303.413 108.407 323.765 80.015 344.703C52.6824 364.858 26.8027 386.627 0 407.44C29.5284 367.6 64.2278 330.376 96.3522 292.537C152.547 226.348 208.621 159.301 267.68 95.6632C296.06 121.717 323.776 148.461 350.828 175.892C406.116 118.602 456.441 56.2661 512.69 0Z" fill="url(#paint0_linear_552_4364)" fill-opacity="0.04"/>
  <defs>
    <linearGradient id="paint0_linear_552_4364" x1="477.5" y1="0" x2="477.5" y2="437" gradientUnits="userSpaceOnUse">
      <stop offset="0.109895" stop-color="white"/>
      <stop offset="0.760719" stop-color="white" stop-opacity="0"/>
    </linearGradient>
  </defs>
</svg>