<svg width="64" height="64" viewBox="0 0 64 64" fill="none" xmlns="http://www.w3.org/2000/svg">
<path d="M61.31 23.244C61.2774 23.1537 61.2256 23.0715 61.1583 23.003C61.091 22.9346 61.0097 22.8815 60.92 22.8473C57.286 21.5706 50.4733 23.34 51.6586 28.7506C51.3426 28.9313 51.0833 29.1306 50.7966 29.3293C50.9566 28.7953 50.4246 28.2787 49.9067 28.4933L47.266 29.5473C47.1665 29.587 47.078 29.6501 47.0081 29.7312C46.9381 29.8123 46.8887 29.9091 46.864 30.0133C45.576 35.4693 44.0233 38.6233 41.9773 39.9386C38.4413 42.2107 38.072 42.45 31.902 39.8833C28.1646 38.2666 26.0713 33.882 22.9167 31.1607C23.2857 31.0534 23.6425 30.908 23.9813 30.7267C25.2327 31.8706 27.9253 32.7587 29.88 31.6327C32.6666 30.262 33.6473 27.6993 35.4993 25.5C35.7613 25.202 35.68 24.7006 35.336 24.5013C31.3653 22.2066 22.904 22.852 23.3526 29.5513C22.8793 29.8067 21.9593 30.1973 21.226 29.8607C18.518 28.1907 14.942 27.4967 12.136 27.2153C14.3707 24.884 17.202 21.248 19.5847 20.5373C24.4013 18.9466 23.6953 17.9753 26.7253 17.2333C27.826 18.872 29.442 19.7086 31.2066 19.4686C33.0413 19.216 34.3473 18.232 35.6106 17.2806C36.1546 16.8713 36.7173 16.4473 37.33 16.072C37.6726 15.8726 37.754 15.3693 37.4907 15.0726C34.878 12.1506 27.954 10.4146 26.4653 15.9193C25.99 16.0613 25.1533 16.324 24.4613 16.6066L23.858 15.5293C25.432 13.0353 26.5067 8.86598 26.5533 8.68132C26.5784 8.58284 26.5807 8.47993 26.5599 8.38044C26.5391 8.28096 26.4959 8.18754 26.4335 8.10733C26.3711 8.02711 26.2912 7.96222 26.1999 7.91762C26.1086 7.87302 26.0083 7.84988 25.9067 7.84998H21.788C21.6529 7.84986 21.5209 7.89088 21.4097 7.96757C21.2985 8.04426 21.2132 8.153 21.1653 8.27932C18.916 14.1713 16.8626 15.388 12.4313 17.9053C12.2667 17.1093 11.9393 16.3126 11.7553 15.9033C14.226 10.3746 7.28198 7.15332 3.19132 7.84732C2.80065 7.91398 2.54665 8.35598 2.68932 8.72665C3.55865 11.162 3.58132 13.6193 5.50398 15.6526C6.80932 17.07 8.86398 17.3893 10.6847 16.7933C10.926 17.3867 11.1633 18.118 11.1953 18.6346C8.65665 20.2486 5.32532 25.2333 2.93332 27.076C2.85009 27.1381 2.78253 27.2188 2.736 27.3116C2.68947 27.4044 2.66527 27.5068 2.66532 27.6106V33.8986C2.66501 34.0267 2.7016 34.1521 2.77072 34.2598C2.83983 34.3676 2.93855 34.4532 3.05503 34.5063C3.17152 34.5594 3.30085 34.5778 3.42753 34.5593C3.55421 34.5408 3.67288 34.4862 3.76932 34.402C3.77865 34.394 4.23732 33.9953 5.11932 33.2633C6.52398 33.1507 15.006 32.5707 18.342 34.478C19.1867 34.9606 19.92 35.558 20.606 36.2213C21.066 40.0693 20.9873 41.9047 22.0513 47.434C21.9946 47.7026 21.3687 48.3753 20.63 48.986C15.7927 45.0193 10.546 51.074 10.048 55.3633C10.002 55.7593 10.3527 56.1206 10.75 56.092C13.4827 55.938 16.0147 56.6353 18.6213 55.2973C21.114 54.028 21.3613 51.51 21.2973 50.164C21.6879 49.861 22.0577 49.5321 22.404 49.1793C22.4373 49.5186 22.67 49.824 23.026 49.8513C23.8113 49.922 24.3633 49.9506 24.7573 49.9506C25.5793 49.9506 25.716 49.826 25.8493 49.7046C26.1493 49.3633 26.094 49.236 26.0133 48.696C25.834 47.5946 25.34 44.5486 25.4347 41.4773C28.638 44.5066 33.312 46.3633 37.778 46.4053C38.518 46.334 39.268 47.188 39.9646 47.9666C39.092 49.824 39.2333 51.724 40.3933 53.122C42.14 55.2033 44.4293 55.492 46.6287 56.5987C46.9793 56.7853 47.4493 56.588 47.562 56.208C48.6827 52.4073 46.496 45.51 40.9813 47.102C40.719 46.7828 40.4369 46.4804 40.1367 46.1966C42.1433 45.8413 44.0373 45.0066 45.6347 43.5413C47.2113 42.094 48.186 42.0233 49.5353 41.9246C50.098 41.884 50.7293 41.834 51.456 41.674C52.6986 41.7387 53.5187 42.206 53.9687 42.566C52.6053 43.922 52.0947 45.6487 52.6087 47.3046C53.4286 49.8946 55.4347 51.036 57.0453 52.8973C57.298 53.2033 57.8073 53.202 58.0573 52.8926C60.5833 49.7466 61.1546 42.4366 55.2566 41.9487C54.9973 41.6733 54.4886 41.2313 53.7113 40.872C58.5966 38.5813 58.3006 35.1327 57.976 34.528C57.83 34.1106 57.2633 33.9573 56.9286 34.25C53.2046 37.3167 50.252 37.6147 48.9813 37.5673C49.7706 34.5087 50.2333 32.3713 50.4967 31.02C51.3513 30.66 51.7467 30.228 52.424 29.8647C56.2753 32.012 59.09 29.028 60.3446 25.6887C60.622 25.0686 60.908 24.4273 61.262 23.8033C61.358 23.634 61.3746 23.4307 61.3086 23.248L61.31 23.244Z" fill="url(#paint0_linear_114_1226)"/>
<defs>
<linearGradient id="paint0_linear_114_1226" x1="2.99976" y1="8" x2="60.9998" y2="57" gradientUnits="userSpaceOnUse">
<stop stop-color="white"/>
<stop offset="1" stop-color="white" stop-opacity="0.1"/>
</linearGradient>
</defs>
</svg>
