<svg width="64" height="64" viewBox="0 0 64 64" fill="none" xmlns="http://www.w3.org/2000/svg">
<path d="M22.3899 12.729C22.41 12.669 22.4199 12.609 22.4399 12.549H15.9099C15.1154 12.5514 14.3319 12.7356 13.6195 13.0874C12.9072 13.4393 12.2847 13.9495 11.7999 14.579L5.05995 23.4391C4.56597 24.0846 4.2334 24.8389 4.08995 25.639H18.7399L22.3899 12.729ZM18.7499 27.639H4.11995C4.28405 28.4346 4.63735 29.1789 5.14995 29.809L27.7599 57.8091L27.6499 57.439L18.7499 27.639ZM36.3499 57.4291C35.3669 59.292 59.0499 29.3601 58.8499 29.809C59.3615 29.177 59.7177 28.4337 59.8899 27.639H45.25L36.3499 57.4291ZM52.2 14.579C51.7152 13.9495 51.0927 13.4393 50.3804 13.0874C49.668 12.7356 48.8845 12.5514 48.09 12.549H41.5499C41.5777 12.6107 41.6011 12.6742 41.6199 12.739L45.2599 25.639H59.91C59.7665 24.8389 59.4339 24.0846 58.9399 23.4391L52.2 14.579ZM20.84 27.639L29.57 56.8591L30.2799 59.2191C30.5029 59.9751 31.347 59.986 32 59.9991C32.653 59.986 33.498 59.9751 33.72 59.2191L34.43 56.8591L43.16 27.639H20.84ZM43.1699 25.639C42.9639 24.896 39.8029 13.673 39.6899 13.279C39.6318 13.0691 39.5064 12.8841 39.333 12.7522C39.1596 12.6204 38.9478 12.549 38.7299 12.549H25.27C24.26 12.509 24.186 13.863 23.95 14.549L20.8299 25.639H43.1699ZM17.2 52.0191C15.9114 51.7623 14.7278 51.1294 13.7987 50.2003C12.8696 49.2712 12.2367 48.0876 11.9799 46.799C11.934 46.573 11.8114 46.3698 11.6328 46.2238C11.4542 46.0778 11.2306 45.998 10.9999 45.998C10.7693 45.998 10.5457 46.0778 10.3671 46.2238C10.1885 46.3698 10.0659 46.573 10.0199 46.799C9.7632 48.0876 9.13031 49.2712 8.20123 50.2003C7.27214 51.1294 6.08854 51.7623 4.79995 52.0191C4.57705 52.0687 4.37772 52.1928 4.23487 52.371C4.09201 52.5491 4.01416 52.7707 4.01416 52.9991C4.01416 53.2274 4.09201 53.449 4.23487 53.6271C4.37772 53.8053 4.57705 53.9294 4.79995 53.979C6.08854 54.2358 7.27214 54.8687 8.20123 55.7978C9.13031 56.7269 9.7632 57.9105 10.0199 59.1991C10.0659 59.4251 10.1885 59.6283 10.3671 59.7743C10.5457 59.9203 10.7693 60.0001 10.9999 60.0001C11.2306 60.0001 11.4542 59.9203 11.6328 59.7743C11.8114 59.6283 11.934 59.4251 11.9799 59.1991C12.2367 57.9105 12.8696 56.7269 13.7987 55.7978C14.7278 54.8687 15.9114 54.2358 17.2 53.979C17.4229 53.9294 17.6222 53.8053 17.765 53.6271C17.9079 53.449 17.9857 53.2274 17.9857 52.9991C17.9857 52.7707 17.9079 52.5491 17.765 52.371C17.6222 52.1928 17.4229 52.0687 17.2 52.0191ZM50.7999 9.97905C51.5946 10.138 52.3244 10.5286 52.8974 11.1016C53.4704 11.6746 53.861 12.4044 54.02 13.199C54.0659 13.4251 54.1885 13.6283 54.3671 13.7743C54.5457 13.9203 54.7693 14.0001 55 14.0001C55.2306 14.0001 55.4542 13.9203 55.6328 13.7743C55.8114 13.6283 55.934 13.4251 55.9799 13.199C56.1389 12.4044 56.5295 11.6746 57.1025 11.1016C57.6755 10.5286 58.4053 10.138 59.2 9.97905C59.4229 9.92942 59.6222 9.80528 59.765 9.62711C59.9079 9.44895 59.9857 9.22741 59.9857 8.99905C59.9857 8.77069 59.9079 8.54915 59.765 8.37098C59.6222 8.19282 59.4229 8.06868 59.2 8.01905C58.4053 7.86021 57.6754 7.46965 57.1024 6.89662C56.5293 6.32358 56.1388 5.59372 55.9799 4.79905C55.934 4.57299 55.8114 4.36975 55.6328 4.22377C55.4542 4.07779 55.2306 3.99805 55 3.99805C54.7693 3.99805 54.5457 4.07779 54.3671 4.22377C54.1885 4.36975 54.0659 4.57299 54.02 4.79905C53.8611 5.59372 53.4706 6.32358 52.8975 6.89662C52.3245 7.46965 51.5946 7.86021 50.7999 8.01905C50.577 8.06868 50.3777 8.19282 50.2349 8.37098C50.092 8.54915 50.0142 8.77069 50.0142 8.99905C50.0142 9.22741 50.092 9.44895 50.2349 9.62711C50.3777 9.80528 50.577 9.92942 50.7999 9.97905Z" fill="url(#paint0_linear_114_1286)"/>
<path d="M17.2 52.0191C15.9114 51.7623 14.7278 51.1294 13.7987 50.2003C12.8696 49.2712 12.2367 48.0876 11.9799 46.799C11.934 46.573 11.8114 46.3698 11.6328 46.2238C11.4542 46.0778 11.2306 45.998 10.9999 45.998C10.7693 45.998 10.5457 46.0778 10.3671 46.2238C10.1885 46.3698 10.0659 46.573 10.0199 46.799C9.7632 48.0876 9.13031 49.2712 8.20123 50.2003C7.27214 51.1294 6.08854 51.7623 4.79995 52.0191C4.57705 52.0687 4.37772 52.1928 4.23487 52.371C4.09201 52.5491 4.01416 52.7707 4.01416 52.9991C4.01416 53.2274 4.09201 53.449 4.23487 53.6271C4.37772 53.8053 4.57705 53.9294 4.79995 53.979C6.08854 54.2358 7.27214 54.8687 8.20123 55.7978C9.13031 56.7269 9.7632 57.9105 10.0199 59.1991C10.0659 59.4251 10.1885 59.6283 10.3671 59.7743C10.5457 59.9203 10.7693 60.0001 10.9999 60.0001C11.2306 60.0001 11.4542 59.9203 11.6328 59.7743C11.8114 59.6283 11.934 59.4251 11.9799 59.1991C12.2367 57.9105 12.8696 56.7269 13.7987 55.7978C14.7278 54.8687 15.9114 54.2358 17.2 53.979C17.4229 53.9294 17.6222 53.8053 17.765 53.6271C17.9079 53.449 17.9857 53.2274 17.9857 52.9991C17.9857 52.7707 17.9079 52.5491 17.765 52.371C17.6222 52.1928 17.4229 52.0687 17.2 52.0191ZM50.7999 9.97905C51.5946 10.138 52.3244 10.5286 52.8974 11.1016C53.4704 11.6746 53.861 12.4044 54.02 13.199C54.0659 13.4251 54.1885 13.6283 54.3671 13.7743C54.5457 13.9203 54.7693 14.0001 55 14.0001C55.2306 14.0001 55.4542 13.9203 55.6328 13.7743C55.8114 13.6283 55.934 13.4251 55.9799 13.199C56.1389 12.4044 56.5295 11.6746 57.1025 11.1016C57.6755 10.5286 58.4053 10.138 59.2 9.97905C59.4229 9.92942 59.6222 9.80528 59.765 9.62711C59.9079 9.44895 59.9857 9.22741 59.9857 8.99905C59.9857 8.77069 59.9079 8.54915 59.765 8.37098C59.6222 8.19282 59.4229 8.06868 59.2 8.01905C58.4053 7.86021 57.6754 7.46965 57.1024 6.89662C56.5293 6.32358 56.1388 5.59372 55.9799 4.79905C55.934 4.57299 55.8114 4.36975 55.6328 4.22377C55.4542 4.07779 55.2306 3.99805 55 3.99805C54.7693 3.99805 54.5457 4.07779 54.3671 4.22377C54.1885 4.36975 54.0659 4.57299 54.02 4.79905C53.8611 5.59372 53.4706 6.32358 52.8975 6.89662C52.3245 7.46965 51.5946 7.86021 50.7999 8.01905C50.577 8.06868 50.3777 8.19282 50.2349 8.37098C50.092 8.54915 50.0142 8.77069 50.0142 8.99905C50.0142 9.22741 50.092 9.44895 50.2349 9.62711C50.3777 9.80528 50.577 9.92942 50.7999 9.97905Z" fill="url(#paint1_linear_114_1286)"/>
<defs>
<linearGradient id="paint0_linear_114_1286" x1="4.34846" y1="4.27979" x2="67.7403" y2="48.8849" gradientUnits="userSpaceOnUse">
<stop stop-color="white"/>
<stop offset="1" stop-color="white" stop-opacity="0.1"/>
</linearGradient>
<linearGradient id="paint1_linear_114_1286" x1="4.34846" y1="4.27979" x2="67.7403" y2="48.8849" gradientUnits="userSpaceOnUse">
<stop stop-color="white"/>
<stop offset="1" stop-color="white" stop-opacity="0.1"/>
</linearGradient>
</defs>
</svg>
