<svg width="64" height="64" viewBox="0 0 64 64" fill="none" xmlns="http://www.w3.org/2000/svg">
<path d="M36.8692 49.5907L31.9994 35.0336L27.1296 49.5907V49.6169L31.9994 54.4867L36.8692 49.6169V49.5907Z" fill="url(#paint0_linear_114_1292)"/>
<path d="M32.0001 29.381C39.2301 29.381 45.091 23.52 45.091 16.2901C45.091 9.06022 39.2301 3.19922 32.0001 3.19922C24.7702 3.19922 18.9092 9.06022 18.9092 16.2901C18.9092 23.52 24.7702 29.381 32.0001 29.381Z" fill="url(#paint1_linear_114_1292)"/>
<path d="M37.2361 31.9992H36.503L42.2891 49.3316C42.4779 49.8123 42.5239 50.3372 42.4218 50.8434C42.3196 51.3496 42.0736 51.8156 41.7131 52.1854L33.0993 60.7992H55.5633C56.2571 60.7971 56.9218 60.5206 57.4124 60.0301C57.9029 59.5395 58.1794 58.8748 58.1815 58.181V52.9447C58.1746 47.3917 55.9656 42.0682 52.0391 38.1417C48.1125 34.2151 42.789 32.0061 37.2361 31.9992ZM22.2862 52.1854C21.9258 51.8156 21.6798 51.3496 21.5776 50.8434C21.4754 50.3372 21.5215 49.8123 21.7102 49.3316L27.4964 31.9992H26.7633C21.2104 32.0061 15.8868 34.2151 11.9603 38.1417C8.03377 42.0682 5.8248 47.3917 5.81787 52.9447V58.181C5.81994 58.8748 6.09645 59.5395 6.58701 60.0301C7.07756 60.5206 7.74231 60.7971 8.43605 60.7992H30.9262C30.9262 60.7992 29.2506 59.1498 22.2862 52.1854Z" fill="url(#paint2_linear_114_1292)"/>
<defs>
<linearGradient id="paint0_linear_114_1292" x1="6.13062" y1="3.489" x2="69.0327" y2="43.7476" gradientUnits="userSpaceOnUse">
<stop stop-color="white"/>
<stop offset="1" stop-color="white" stop-opacity="0.1"/>
</linearGradient>
<linearGradient id="paint1_linear_114_1292" x1="6.13062" y1="3.489" x2="69.0327" y2="43.7476" gradientUnits="userSpaceOnUse">
<stop stop-color="white"/>
<stop offset="1" stop-color="white" stop-opacity="0.1"/>
</linearGradient>
<linearGradient id="paint2_linear_114_1292" x1="6.13062" y1="3.489" x2="69.0327" y2="43.7476" gradientUnits="userSpaceOnUse">
<stop stop-color="white"/>
<stop offset="1" stop-color="white" stop-opacity="0.1"/>
</linearGradient>
</defs>
</svg>
