<svg width="64" height="64" viewBox="0 0 64 64" fill="none" xmlns="http://www.w3.org/2000/svg">
<path d="M57.2 6.8H48.8V4H15.2V6.8H6.8C5.12 6.8 4 7.92 4 9.6V16.32C4 22.76 8.76 28.08 15.2 28.92V29.2C15.2 37.32 20.8 44.04 28.36 45.72L26.4 51.6H19.96C18.84 51.6 17.72 52.44 17.44 53.56L15.2 60H48.8L46.56 53.56C46.28 52.44 45.16 51.6 44.04 51.6H37.6L35.64 45.72C43.2 44.04 48.8 37.32 48.8 29.2V28.92C55.24 28.08 60 22.76 60 16.32V9.6C60 7.92 58.88 6.8 57.2 6.8ZM15.2 23.32C12.12 22.48 9.6 19.68 9.6 16.32V12.4H15.2V23.32ZM37.6 32L32 28.92L26.4 32L27.8 26.4L23.6 20.8H29.48L32 15.2L34.52 20.8H40.4L36.2 26.4L37.6 32ZM54.4 16.32C54.4 19.68 51.88 22.76 48.8 23.32V12.4H54.4V16.32Z" fill="url(#paint0_linear_114_1297)"/>
<defs>
<linearGradient id="paint0_linear_114_1297" x1="4.33447" y1="4.28173" x2="67.7357" y2="48.9176" gradientUnits="userSpaceOnUse">
<stop stop-color="white"/>
<stop offset="1" stop-color="white" stop-opacity="0.1"/>
</linearGradient>
</defs>
</svg>
